<svg xmlns="http://www.w3.org/2000/svg" xmlns:xlink="http://www.w3.org/1999/xlink" width="1227pt" height="673pt" viewBox="0.00 0.00 1227.43 672.80">
<g id="graph0" class="graph" transform="scale(1 1) rotate(0) translate(4 668.8)">
<title>CFG</title>
<polygon fill="white" stroke="none" points="-4,4 -4,-668.8 1223.43,-668.8 1223.43,4 -4,4"/>
<!-- entry1 -->
<g id="node1" class="node">
<title>entry1</title>
<polygon fill="none" stroke="black" points="401.39,-538.7 401.39,-664.3 593.82,-664.3 593.82,-538.7 401.39,-538.7"/>
<text text-anchor="start" x="409.39" y="-647.7" font-family="Courier New" font-size="14.00">entry1:</text>
<text text-anchor="start" x="409.39" y="-630.9" font-family="Courier New" font-size="14.00">s.0 = COPY 0</text>
<text text-anchor="start" x="409.39" y="-614.1" font-family="Courier New" font-size="14.00">i.0 = COPY 0</text>
<text text-anchor="start" x="409.39" y="-597.3" font-family="Courier New" font-size="14.00">a.0 = COPY 5</text>
<text text-anchor="start" x="409.39" y="-580.5" font-family="Courier New" font-size="14.00">i.1 = COPY 1</text>
<text text-anchor="start" x="409.39" y="-563.7" font-family="Courier New" font-size="14.00">rel = CMP_LE i.1 n</text>
<text text-anchor="start" x="409.39" y="-546.9" font-family="Courier New" font-size="14.00">BR rel forBody forEnd</text>
</g>
<!-- forBody -->
<g id="node2" class="node">
<title>forBody</title>
<polygon fill="none" stroke="black" points="220.59,-325.7 220.59,-501.7 488.63,-501.7 488.63,-325.7 220.59,-325.7"/>
<text text-anchor="start" x="228.59" y="-485.1" font-family="Courier New" font-size="14.00">forBody:</text>
<text text-anchor="start" x="228.59" y="-468.3" font-family="Courier New" font-size="14.00">i.2 = ϕ i.1 i.3 entry1 ifEnd1</text>
<text text-anchor="start" x="228.59" y="-451.5" font-family="Courier New" font-size="14.00">a.1 = ϕ a.0 a.4 entry1 ifEnd1</text>
<text text-anchor="start" x="228.59" y="-434.7" font-family="Courier New" font-size="14.00">call = CALL @print_int a.1</text>
<text text-anchor="start" x="228.59" y="-417.9" font-family="Courier New" font-size="14.00">b.0 = COPY n</text>
<text text-anchor="start" x="228.59" y="-401.1" font-family="Courier New" font-size="14.00">c.0 = COPY n</text>
<text text-anchor="start" x="228.59" y="-384.3" font-family="Courier New" font-size="14.00">div = DIV i.2 2</text>
<text text-anchor="start" x="228.59" y="-367.5" font-family="Courier New" font-size="14.00">mul = MUL div 2</text>
<text text-anchor="start" x="228.59" y="-350.7" font-family="Courier New" font-size="14.00">rel1 = CMP_EQ mul i.2</text>
<text text-anchor="start" x="228.59" y="-333.9" font-family="Courier New" font-size="14.00">BR rel1 then else</text>
</g>
<!-- entry1&#45;&gt;forBody -->
<g id="edge1" class="edge">
<title>entry1-&gt;forBody</title>
<path fill="none" stroke="black" d="M449.79,-538.37C442.96,-529.5 435.81,-520.2 428.62,-510.86"/>
<polygon fill="black" stroke="black" points="431.52,-508.9 422.65,-503.11 425.98,-513.17 431.52,-508.9"/>
</g>
<!-- forEnd -->
<g id="node9" class="node">
<title>forEnd</title>
<polygon fill="none" stroke="black" points="582.59,-376.1 582.59,-451.3 850.63,-451.3 850.63,-376.1 582.59,-376.1"/>
<text text-anchor="start" x="590.59" y="-434.7" font-family="Courier New" font-size="14.00">forEnd:</text>
<text text-anchor="start" x="590.59" y="-417.9" font-family="Courier New" font-size="14.00">a.5 = ϕ a.0 a.4 entry1 ifEnd1</text>
<text text-anchor="start" x="590.59" y="-401.1" font-family="Courier New" font-size="14.00">rel4 = CMP_EQ a.5 5</text>
<text text-anchor="start" x="590.59" y="-384.3" font-family="Courier New" font-size="14.00">BR rel4 then2 else2</text>
</g>
<!-- entry1&#45;&gt;forEnd -->
<g id="edge2" class="edge">
<title>entry1-&gt;forEnd</title>
<path fill="none" stroke="black" d="M570.84,-538.37C601.6,-512.27 636.67,-482.52 664.7,-458.74"/>
<polygon fill="black" stroke="black" points="666.65,-461.68 672.01,-452.54 662.12,-456.34 666.65,-461.68"/>
</g>
<!-- then -->
<g id="node3" class="node">
<title>then</title>
<polygon fill="none" stroke="black" points="0,-196.7 0,-255.1 125.22,-255.1 125.22,-196.7 0,-196.7"/>
<text text-anchor="start" x="8" y="-238.5" font-family="Courier New" font-size="14.00">then:</text>
<text text-anchor="start" x="8" y="-221.7" font-family="Courier New" font-size="14.00">if.1 = COPY 1</text>
<text text-anchor="start" x="8" y="-204.9" font-family="Courier New" font-size="14.00">BR ifEnd</text>
</g>
<!-- forBody&#45;&gt;then -->
<g id="edge4" class="edge">
<title>forBody-&gt;then</title>
<path fill="none" stroke="black" d="M220.36,-343.64C191.05,-326.94 160.71,-308.34 133.61,-289.2 122.41,-281.29 110.96,-271.91 100.61,-262.85"/>
<polygon fill="black" stroke="black" points="103.13,-260.41 93.33,-256.37 98.47,-265.63 103.13,-260.41"/>
</g>
<!-- else -->
<g id="node4" class="node">
<title>else</title>
<polygon fill="none" stroke="black" points="142.8,-179.9 142.8,-271.9 276.42,-271.9 276.42,-179.9 142.8,-179.9"/>
<text text-anchor="start" x="150.8" y="-255.3" font-family="Courier New" font-size="14.00">else:</text>
<text text-anchor="start" x="150.8" y="-238.5" font-family="Courier New" font-size="14.00">c.1 = COPY i.2</text>
<text text-anchor="start" x="150.8" y="-221.7" font-family="Courier New" font-size="14.00">b.1 = COPY c.1</text>
<text text-anchor="start" x="150.8" y="-204.9" font-family="Courier New" font-size="14.00">if.0 = COPY 1</text>
<text text-anchor="start" x="150.8" y="-188.1" font-family="Courier New" font-size="14.00">BR ifEnd</text>
</g>
<!-- forBody&#45;&gt;else -->
<g id="edge3" class="edge">
<title>forBody-&gt;else</title>
<path fill="none" stroke="black" d="M286.35,-325.24C274.54,-310.11 262.58,-294.78 251.73,-280.88"/>
<polygon fill="black" stroke="black" points="254.62,-278.88 245.7,-273.15 249.1,-283.19 254.62,-278.88"/>
</g>
<!-- ifEnd -->
<g id="node5" class="node">
<title>ifEnd</title>
<polygon fill="none" stroke="black" points="294.79,-163.1 294.79,-288.7 554.43,-288.7 554.43,-163.1 294.79,-163.1"/>
<text text-anchor="start" x="302.79" y="-272.1" font-family="Courier New" font-size="14.00">ifEnd:</text>
<text text-anchor="start" x="302.79" y="-255.3" font-family="Courier New" font-size="14.00">b.2 = ϕ b.0 b.1 then else</text>
<text text-anchor="start" x="302.79" y="-238.5" font-family="Courier New" font-size="14.00">if.2 = ϕ if.1 if.0 then else</text>
<text text-anchor="start" x="302.79" y="-221.7" font-family="Courier New" font-size="14.00">c.2 = ϕ c.0 c.1 then else</text>
<text text-anchor="start" x="302.79" y="-204.9" font-family="Courier New" font-size="14.00">s.1 = COPY if.2</text>
<text text-anchor="start" x="302.79" y="-188.1" font-family="Courier New" font-size="14.00">rel2 = CMP_EQ s.1 1</text>
<text text-anchor="start" x="302.79" y="-171.3" font-family="Courier New" font-size="14.00">BR rel2 then1 else1</text>
</g>
<!-- forBody&#45;&gt;ifEnd -->
<g id="edge5" class="edge">
<title>forBody-&gt;ifEnd</title>
<path fill="none" stroke="black" d="M387.56,-325.24C390.8,-316.64 394.07,-307.97 397.24,-299.54"/>
<polygon fill="black" stroke="black" points="400.43,-301.02 400.68,-290.42 393.88,-298.55 400.43,-301.02"/>
</g>
<!-- then1 -->
<g id="node6" class="node">
<title>then1</title>
<polygon fill="none" stroke="black" points="181.4,-25.7 181.4,-100.9 331.82,-100.9 331.82,-25.7 181.4,-25.7"/>
<text text-anchor="start" x="189.4" y="-84.3" font-family="Courier New" font-size="14.00">then1:</text>
<text text-anchor="start" x="189.4" y="-67.5" font-family="Courier New" font-size="14.00">a.3 = COPY 5</text>
<text text-anchor="start" x="189.4" y="-50.7" font-family="Courier New" font-size="14.00">if1.1 = COPY a.3</text>
<text text-anchor="start" x="189.4" y="-33.9" font-family="Courier New" font-size="14.00">BR ifEnd1</text>
</g>
<!-- ifEnd&#45;&gt;then1 -->
<g id="edge7" class="edge">
<title>ifEnd-&gt;then1</title>
<path fill="none" stroke="black" d="M359.66,-162.81C340.93,-144.91 320.87,-125.73 303.47,-109.1"/>
<polygon fill="black" stroke="black" points="305.9,-106.58 296.26,-102.2 301.07,-111.64 305.9,-106.58"/>
</g>
<!-- else1 -->
<g id="node7" class="node">
<title>else1</title>
<polygon fill="none" stroke="black" points="349.4,-25.7 349.4,-100.9 499.82,-100.9 499.82,-25.7 349.4,-25.7"/>
<text text-anchor="start" x="357.4" y="-84.3" font-family="Courier New" font-size="14.00">else1:</text>
<text text-anchor="start" x="357.4" y="-67.5" font-family="Courier New" font-size="14.00">a.2 = COPY 10</text>
<text text-anchor="start" x="357.4" y="-50.7" font-family="Courier New" font-size="14.00">if1.0 = COPY a.2</text>
<text text-anchor="start" x="357.4" y="-33.9" font-family="Courier New" font-size="14.00">BR ifEnd1</text>
</g>
<!-- ifEnd&#45;&gt;else1 -->
<g id="edge6" class="edge">
<title>ifEnd-&gt;else1</title>
<path fill="none" stroke="black" d="M424.61,-162.81C424.61,-146.05 424.61,-128.17 424.61,-112.3"/>
<polygon fill="black" stroke="black" points="428.11,-112.67 424.61,-102.67 421.11,-112.67 428.11,-112.67"/>
</g>
<!-- ifEnd1 -->
<g id="node8" class="node">
<title>ifEnd1</title>
<polygon fill="none" stroke="black" points="517.99,-0.5 517.99,-126.1 769.23,-126.1 769.23,-0.5 517.99,-0.5"/>
<text text-anchor="start" x="525.99" y="-109.5" font-family="Courier New" font-size="14.00">ifEnd1:</text>
<text text-anchor="start" x="525.99" y="-92.7" font-family="Courier New" font-size="14.00">a.4 = ϕ a.3 a.2 then1 else1</text>
<text text-anchor="start" x="525.99" y="-75.9" font-family="Courier New" font-size="14.00">call1 = CALL @print_int b.2</text>
<text text-anchor="start" x="525.99" y="-59.1" font-family="Courier New" font-size="14.00">call2 = CALL @print_int c.2</text>
<text text-anchor="start" x="525.99" y="-42.3" font-family="Courier New" font-size="14.00">i.3 = ADD i.2 1</text>
<text text-anchor="start" x="525.99" y="-25.5" font-family="Courier New" font-size="14.00">rel3 = CMP_LE i.3 n</text>
<text text-anchor="start" x="525.99" y="-8.7" font-family="Courier New" font-size="14.00">BR rel3 forBody forEnd</text>
</g>
<!-- ifEnd&#45;&gt;ifEnd1 -->
<g id="edge8" class="edge">
<title>ifEnd-&gt;ifEnd1</title>
<path fill="none" stroke="black" d="M509.28,-162.81C522.48,-153.13 536.19,-143.07 549.59,-133.25"/>
<polygon fill="black" stroke="black" points="551.59,-136.12 557.58,-127.39 547.45,-130.48 551.59,-136.12"/>
</g>
<!-- then2 -->
<g id="node10" class="node">
<title>then2</title>
<polygon fill="none" stroke="black" points="572.4,-196.7 572.4,-255.1 722.82,-255.1 722.82,-196.7 572.4,-196.7"/>
<text text-anchor="start" x="580.4" y="-238.5" font-family="Courier New" font-size="14.00">then2:</text>
<text text-anchor="start" x="580.4" y="-221.7" font-family="Courier New" font-size="14.00">if2.1 = COPY a.5</text>
<text text-anchor="start" x="580.4" y="-204.9" font-family="Courier New" font-size="14.00">BR ifEnd2</text>
</g>
<!-- forEnd&#45;&gt;then2 -->
<g id="edge10" class="edge">
<title>forEnd-&gt;then2</title>
<path fill="none" stroke="black" d="M702.98,-375.99C691.16,-344.16 674.1,-298.23 662.05,-265.78"/>
<polygon fill="black" stroke="black" points="665.46,-264.91 658.69,-256.75 658.9,-267.34 665.46,-264.91"/>
</g>
<!-- else2 -->
<g id="node11" class="node">
<title>else2</title>
<polygon fill="none" stroke="black" points="741.2,-196.7 741.2,-255.1 900.02,-255.1 900.02,-196.7 741.2,-196.7"/>
<text text-anchor="start" x="749.2" y="-238.5" font-family="Courier New" font-size="14.00">else2:</text>
<text text-anchor="start" x="749.2" y="-221.7" font-family="Courier New" font-size="14.00">if2.0 = ADD a.5 1</text>
<text text-anchor="start" x="749.2" y="-204.9" font-family="Courier New" font-size="14.00">BR ifEnd2</text>
</g>
<!-- forEnd&#45;&gt;else2 -->
<g id="edge9" class="edge">
<title>forEnd-&gt;else2</title>
<path fill="none" stroke="black" d="M737.16,-375.99C755.05,-344.02 780.9,-297.83 799.08,-265.36"/>
<polygon fill="black" stroke="black" points="802.12,-267.09 803.95,-256.65 796.02,-263.67 802.12,-267.09"/>
</g>
<!-- ifEnd2 -->
<g id="node12" class="node">
<title>ifEnd2</title>
<polygon fill="none" stroke="black" points="917.79,-196.7 917.79,-255.1 1219.43,-255.1 1219.43,-196.7 917.79,-196.7"/>
<text text-anchor="start" x="925.79" y="-238.5" font-family="Courier New" font-size="14.00">ifEnd2:</text>
<text text-anchor="start" x="925.79" y="-221.7" font-family="Courier New" font-size="14.00">if2.2 = ϕ if2.1 if2.0 then2 else2</text>
<text text-anchor="start" x="925.79" y="-204.9" font-family="Courier New" font-size="14.00">RET if2.2</text>
</g>
<!-- forEnd&#45;&gt;ifEnd2 -->
<g id="edge11" class="edge">
<title>forEnd-&gt;ifEnd2</title>
<path fill="none" stroke="black" d="M786.57,-375.77C850.01,-342.29 942.74,-293.34 1004.34,-260.82"/>
<polygon fill="black" stroke="black" points="1005.78,-264.02 1012.99,-256.26 1002.51,-257.83 1005.78,-264.02"/>
</g>
</g>
</svg>