<svg xmlns="http://www.w3.org/2000/svg" xmlns:xlink="http://www.w3.org/1999/xlink" width="492pt" height="1291pt" viewBox="0.00 0.00 491.71 1291.40">
<g id="graph0" class="graph" transform="scale(1 1) rotate(0) translate(4 1287.4)">
<title>CFG</title>
<polygon fill="white" stroke="none" points="-4,4 -4,-1287.4 487.71,-1287.4 487.71,4 -4,4"/>
<!-- entry1 -->
<g id="node1" class="node">
<title>entry1</title>
<polygon fill="none" stroke="black" points="221.39,-1132.5 221.39,-1282.9 413.82,-1282.9 413.82,-1132.5 221.39,-1132.5"/>
<text text-anchor="start" x="229.39" y="-1266.3" font-family="Courier New" font-size="14.00">entry1:</text>
<text text-anchor="start" x="229.39" y="-1249.5" font-family="Courier New" font-size="14.00">s.0 = COPY 0</text>
<text text-anchor="start" x="229.39" y="-1232.7" font-family="Courier New" font-size="14.00">i.0 = COPY 0</text>
<text text-anchor="start" x="229.39" y="-1215.9" font-family="Courier New" font-size="14.00">a.0 = COPY 5</text>
<text text-anchor="start" x="229.39" y="-1199.1" font-family="Courier New" font-size="14.00">i.1 = COPY 1</text>
<text text-anchor="start" x="229.39" y="-1182.3" font-family="Courier New" font-size="14.00">rel = CMP_LE 1 n</text>
<text text-anchor="start" x="229.39" y="-1165.5" font-family="Courier New" font-size="14.00">BR rel forBody forEnd</text>
<polyline fill="none" stroke="black" points="221.39,-1157.3 413.82,-1157.3"/>
<text text-anchor="middle" x="269.1" y="-1140.7" font-family="Courier New" font-size="14.00">T</text>
<polyline fill="none" stroke="black" points="316.8,-1132.5 316.8,-1157.3"/>
<text text-anchor="middle" x="365" y="-1140.7" font-family="Courier New" font-size="14.00">F</text>
</g>
<!-- forBody -->
<g id="node2" class="node">
<title>forBody</title>
<polygon fill="none" stroke="black" points="54.99,-894.7 54.99,-1095.5 306.23,-1095.5 306.23,-894.7 54.99,-894.7"/>
<text text-anchor="start" x="62.99" y="-1078.9" font-family="Courier New" font-size="14.00">forBody:</text>
<text text-anchor="start" x="62.99" y="-1062.1" font-family="Courier New" font-size="14.00">i.2 = ϕ 1 i.3 entry1 ifEnd1</text>
<text text-anchor="start" x="62.99" y="-1045.3" font-family="Courier New" font-size="14.00">a.1 = COPY 5</text>
<text text-anchor="start" x="62.99" y="-1028.5" font-family="Courier New" font-size="14.00">call = CALL @print_int 5</text>
<text text-anchor="start" x="62.99" y="-1011.7" font-family="Courier New" font-size="14.00">b.0 = COPY n</text>
<text text-anchor="start" x="62.99" y="-994.9" font-family="Courier New" font-size="14.00">c.0 = COPY n</text>
<text text-anchor="start" x="62.99" y="-978.1" font-family="Courier New" font-size="14.00">div = DIV i.2 2</text>
<text text-anchor="start" x="62.99" y="-961.3" font-family="Courier New" font-size="14.00">mul = MUL div 2</text>
<text text-anchor="start" x="62.99" y="-944.5" font-family="Courier New" font-size="14.00">rel1 = CMP_EQ mul i.2</text>
<text text-anchor="start" x="62.99" y="-927.7" font-family="Courier New" font-size="14.00">BR rel1 then else</text>
<polyline fill="none" stroke="black" points="54.99,-919.5 306.23,-919.5"/>
<text text-anchor="middle" x="117.69" y="-902.9" font-family="Courier New" font-size="14.00">T</text>
<polyline fill="none" stroke="black" points="180.39,-894.7 180.39,-919.5"/>
<text text-anchor="middle" x="243.09" y="-902.9" font-family="Courier New" font-size="14.00">F</text>
</g>
<!-- entry1&#45;&gt;forBody -->
<g id="edge1" class="edge">
<title>entry1:t-&gt;forBody</title>
<path fill="none" stroke="#008b00" d="M220.39,-1144.9C197.76,-1144.9 185.74,-1128.63 179.8,-1106.85"/>
<polygon fill="#008b00" stroke="#008b00" points="183.25,-1106.25 177.67,-1097.24 176.41,-1107.76 183.25,-1106.25"/>
</g>
<!-- forEnd -->
<g id="node8" class="node">
<title>forEnd</title>
<polygon fill="none" stroke="black" points="320,-191.3 320,-266.5 445.22,-266.5 445.22,-191.3 320,-191.3"/>
<text text-anchor="start" x="328" y="-249.9" font-family="Courier New" font-size="14.00">forEnd:</text>
<text text-anchor="start" x="328" y="-233.1" font-family="Courier New" font-size="14.00">a.5 = COPY 5</text>
<text text-anchor="start" x="328" y="-216.3" font-family="Courier New" font-size="14.00">rel4 = COPY 1</text>
<text text-anchor="start" x="328" y="-199.5" font-family="Courier New" font-size="14.00">BR then2</text>
</g>
<!-- entry1&#45;&gt;forEnd -->
<g id="edge2" class="edge">
<title>entry1:f-&gt;forEnd</title>
<path fill="none" stroke="red" d="M414.2,-1144.9C561.96,-1144.9 427.61,-960.46 427.61,-812.7 427.61,-812.7 427.61,-812.7 427.61,-527.5 427.61,-427.37 429.78,-400.87 408.61,-303 406.81,-294.67 404.31,-285.99 401.56,-277.65"/>
<polygon fill="red" stroke="red" points="404.93,-276.66 398.35,-268.36 398.31,-278.95 404.93,-276.66"/>
</g>
<!-- then -->
<g id="node3" class="node">
<title>then</title>
<polygon fill="none" stroke="black" points="0,-782.5 0,-840.9 125.22,-840.9 125.22,-782.5 0,-782.5"/>
<text text-anchor="start" x="8" y="-824.3" font-family="Courier New" font-size="14.00">then:</text>
<text text-anchor="start" x="8" y="-807.5" font-family="Courier New" font-size="14.00">if.1 = COPY 1</text>
<text text-anchor="start" x="8" y="-790.7" font-family="Courier New" font-size="14.00">BR ifEnd</text>
</g>
<!-- forBody&#45;&gt;then -->
<g id="edge3" class="edge">
<title>forBody:t-&gt;then</title>
<path fill="none" stroke="#008b00" d="M53.99,-907.1C30.49,-907.1 35.89,-877.72 45.26,-851.74"/>
<polygon fill="#008b00" stroke="#008b00" points="48.42,-853.28 48.75,-842.69 41.89,-850.76 48.42,-853.28"/>
</g>
<!-- else -->
<g id="node4" class="node">
<title>else</title>
<polygon fill="none" stroke="black" points="202.8,-765.7 202.8,-857.7 336.42,-857.7 336.42,-765.7 202.8,-765.7"/>
<text text-anchor="start" x="210.8" y="-841.1" font-family="Courier New" font-size="14.00">else:</text>
<text text-anchor="start" x="210.8" y="-824.3" font-family="Courier New" font-size="14.00">c.1 = COPY i.2</text>
<text text-anchor="start" x="210.8" y="-807.5" font-family="Courier New" font-size="14.00">b.1 = COPY i.2</text>
<text text-anchor="start" x="210.8" y="-790.7" font-family="Courier New" font-size="14.00">if.0 = COPY 1</text>
<text text-anchor="start" x="210.8" y="-773.9" font-family="Courier New" font-size="14.00">BR ifEnd</text>
</g>
<!-- forBody&#45;&gt;else -->
<g id="edge4" class="edge">
<title>forBody:f-&gt;else</title>
<path fill="none" stroke="red" d="M243.09,-894.2C243.09,-885.82 244.38,-877.18 246.38,-868.81"/>
<polygon fill="red" stroke="red" points="249.67,-870.02 248.97,-859.45 242.93,-868.15 249.67,-870.02"/>
</g>
<!-- ifEnd -->
<g id="node5" class="node">
<title>ifEnd</title>
<polygon fill="none" stroke="black" points="181.79,-603.1 181.79,-728.7 399.43,-728.7 399.43,-603.1 181.79,-603.1"/>
<text text-anchor="start" x="189.79" y="-712.1" font-family="Courier New" font-size="14.00">ifEnd:</text>
<text text-anchor="start" x="189.79" y="-695.3" font-family="Courier New" font-size="14.00">b.2 = ϕ n i.2 then else</text>
<text text-anchor="start" x="189.79" y="-678.5" font-family="Courier New" font-size="14.00">if.2 = COPY 1</text>
<text text-anchor="start" x="189.79" y="-661.7" font-family="Courier New" font-size="14.00">c.2 = COPY b.2</text>
<text text-anchor="start" x="189.79" y="-644.9" font-family="Courier New" font-size="14.00">s.1 = COPY 1</text>
<text text-anchor="start" x="189.79" y="-628.1" font-family="Courier New" font-size="14.00">rel2 = COPY 1</text>
<text text-anchor="start" x="189.79" y="-611.3" font-family="Courier New" font-size="14.00">BR then1</text>
</g>
<!-- then&#45;&gt;ifEnd -->
<g id="edge5" class="edge">
<title>then-&gt;ifEnd</title>
<path fill="none" stroke="black" d="M107.93,-782.12C129.44,-768.55 156.16,-751.7 182.46,-735.11"/>
<polygon fill="black" stroke="black" points="184.24,-738.12 190.84,-729.83 180.51,-732.2 184.24,-738.12"/>
</g>
<!-- else&#45;&gt;ifEnd -->
<g id="edge6" class="edge">
<title>else-&gt;ifEnd</title>
<path fill="none" stroke="black" d="M276.25,-765.2C277.41,-757.25 278.65,-748.8 279.89,-740.31"/>
<polygon fill="black" stroke="black" points="283.31,-741.09 281.29,-730.69 276.39,-740.08 283.31,-741.09"/>
</g>
<!-- then1 -->
<g id="node6" class="node">
<title>then1</title>
<polygon fill="none" stroke="black" points="217.8,-490.9 217.8,-566.1 351.42,-566.1 351.42,-490.9 217.8,-490.9"/>
<text text-anchor="start" x="225.8" y="-549.5" font-family="Courier New" font-size="14.00">then1:</text>
<text text-anchor="start" x="225.8" y="-532.7" font-family="Courier New" font-size="14.00">a.3 = COPY 5</text>
<text text-anchor="start" x="225.8" y="-515.9" font-family="Courier New" font-size="14.00">if1.1 = COPY 5</text>
<text text-anchor="start" x="225.8" y="-499.1" font-family="Courier New" font-size="14.00">BR ifEnd1</text>
</g>
<!-- ifEnd&#45;&gt;then1 -->
<g id="edge7" class="edge">
<title>ifEnd-&gt;then1</title>
<path fill="none" stroke="black" d="M287.85,-602.75C287.49,-594.43 287.11,-586.01 286.76,-577.97"/>
<polygon fill="black" stroke="black" points="290.26,-577.89 286.32,-568.06 283.26,-578.2 290.26,-577.89"/>
</g>
<!-- ifEnd1 -->
<g id="node7" class="node">
<title>ifEnd1</title>
<polygon fill="none" stroke="black" points="157.19,-303.5 157.19,-453.9 400.03,-453.9 400.03,-303.5 157.19,-303.5"/>
<text text-anchor="start" x="165.19" y="-437.3" font-family="Courier New" font-size="14.00">ifEnd1:</text>
<text text-anchor="start" x="165.19" y="-420.5" font-family="Courier New" font-size="14.00">a.4 = COPY 5</text>
<text text-anchor="start" x="165.19" y="-403.7" font-family="Courier New" font-size="14.00">call1 = CALL @print_int b.2</text>
<text text-anchor="start" x="165.19" y="-386.9" font-family="Courier New" font-size="14.00">call2 = CALL @print_int b.2</text>
<text text-anchor="start" x="165.19" y="-370.1" font-family="Courier New" font-size="14.00">i.3 = ADD i.2 1</text>
<text text-anchor="start" x="165.19" y="-353.3" font-family="Courier New" font-size="14.00">rel3 = CMP_LE i.3 n</text>
<text text-anchor="start" x="165.19" y="-336.5" font-family="Courier New" font-size="14.00">BR rel3 forBody forEnd</text>
<polyline fill="none" stroke="black" points="157.19,-328.3 400.03,-328.3"/>
<text text-anchor="middle" x="217.89" y="-311.7" font-family="Courier New" font-size="14.00">T</text>
<polyline fill="none" stroke="black" points="278.59,-303.5 278.59,-328.3"/>
<text text-anchor="middle" x="339.29" y="-311.7" font-family="Courier New" font-size="14.00">F</text>
</g>
<!-- then1&#45;&gt;ifEnd1 -->
<g id="edge8" class="edge">
<title>then1-&gt;ifEnd1</title>
<path fill="none" stroke="black" d="M283.11,-490.59C282.79,-482.77 282.45,-474.21 282.09,-465.42"/>
<polygon fill="black" stroke="black" points="285.6,-465.57 281.69,-455.72 278.6,-465.85 285.6,-465.57"/>
</g>
<!-- ifEnd1&#45;&gt;forBody -->
<g id="edge9" class="edge">
<title>ifEnd1:t-&gt;forBody</title>
<path fill="none" stroke="#008b00" d="M156.19,-315.9C100.13,-315.9 140.93,-690.79 165.55,-883.12"/>
<polygon fill="#008b00" stroke="#008b00" points="162.06,-883.42 166.8,-892.89 169,-882.53 162.06,-883.42"/>
</g>
<!-- ifEnd1&#45;&gt;forEnd -->
<g id="edge10" class="edge">
<title>ifEnd1:f-&gt;forEnd</title>
<path fill="none" stroke="red" d="M339.29,-303C339.29,-293.98 341.77,-285.09 345.53,-276.79"/>
<polygon fill="red" stroke="red" points="348.62,-278.45 350.19,-267.97 342.43,-275.18 348.62,-278.45"/>
</g>
<!-- then2 -->
<g id="node9" class="node">
<title>then2</title>
<polygon fill="none" stroke="black" points="315.8,-95.9 315.8,-154.3 449.42,-154.3 449.42,-95.9 315.8,-95.9"/>
<text text-anchor="start" x="323.8" y="-137.7" font-family="Courier New" font-size="14.00">then2:</text>
<text text-anchor="start" x="323.8" y="-120.9" font-family="Courier New" font-size="14.00">if2.1 = COPY 5</text>
<text text-anchor="start" x="323.8" y="-104.1" font-family="Courier New" font-size="14.00">BR ifEnd2</text>
</g>
<!-- forEnd&#45;&gt;then2 -->
<g id="edge11" class="edge">
<title>forEnd-&gt;then2</title>
<path fill="none" stroke="black" d="M382.61,-190.86C382.61,-182.75 382.61,-174.12 382.61,-165.9"/>
<polygon fill="black" stroke="black" points="386.11,-166.17 382.61,-156.17 379.11,-166.17 386.11,-166.17"/>
</g>
<!-- ifEnd2 -->
<g id="node10" class="node">
<title>ifEnd2</title>
<polygon fill="none" stroke="black" points="315.8,-0.5 315.8,-58.9 449.42,-58.9 449.42,-0.5 315.8,-0.5"/>
<text text-anchor="start" x="323.8" y="-42.3" font-family="Courier New" font-size="14.00">ifEnd2:</text>
<text text-anchor="start" x="323.8" y="-25.5" font-family="Courier New" font-size="14.00">if2.2 = COPY 5</text>
<text text-anchor="start" x="323.8" y="-8.7" font-family="Courier New" font-size="14.00">RET 5</text>
</g>
<!-- then2&#45;&gt;ifEnd2 -->
<g id="edge12" class="edge">
<title>then2-&gt;ifEnd2</title>
<path fill="none" stroke="black" d="M382.61,-95.57C382.61,-87.77 382.61,-79.16 382.61,-70.84"/>
<polygon fill="black" stroke="black" points="386.11,-70.89 382.61,-60.89 379.11,-70.89 386.11,-70.89"/>
</g>
</g>
</svg>