<svg xmlns="http://www.w3.org/2000/svg" xmlns:xlink="http://www.w3.org/1999/xlink" width="532pt" height="1316pt" viewBox="0.00 0.00 532.42 1316.20">
<g id="graph0" class="graph" transform="scale(1 1) rotate(0) translate(4 1312.2)">
<title>CFG</title>
<polygon fill="white" stroke="none" points="-4,4 -4,-1312.2 528.42,-1312.2 528.42,4 -4,4"/>
<!-- entry1 -->
<g id="node1" class="node">
<title>entry1</title>
<polygon fill="none" stroke="black" points="221.39,-1157.3 221.39,-1307.7 413.82,-1307.7 413.82,-1157.3 221.39,-1157.3"/>
<text text-anchor="start" x="229.39" y="-1291.1" font-family="Courier New" font-size="14.00">entry1:</text>
<text text-anchor="start" x="229.39" y="-1274.3" font-family="Courier New" font-size="14.00">s.0 = COPY 0</text>
<text text-anchor="start" x="229.39" y="-1257.5" font-family="Courier New" font-size="14.00">i.0 = COPY 0</text>
<text text-anchor="start" x="229.39" y="-1240.7" font-family="Courier New" font-size="14.00">a.0 = COPY 5</text>
<text text-anchor="start" x="229.39" y="-1223.9" font-family="Courier New" font-size="14.00">i.1 = COPY 1</text>
<text text-anchor="start" x="229.39" y="-1207.1" font-family="Courier New" font-size="14.00">rel = CMP_LE 1 n</text>
<text text-anchor="start" x="229.39" y="-1190.3" font-family="Courier New" font-size="14.00">BR rel forBody forEnd</text>
<polyline fill="none" stroke="black" points="221.39,-1182.1 413.82,-1182.1"/>
<text text-anchor="middle" x="269.1" y="-1165.5" font-family="Courier New" font-size="14.00">T</text>
<polyline fill="none" stroke="black" points="316.8,-1157.3 316.8,-1182.1"/>
<text text-anchor="middle" x="365" y="-1165.5" font-family="Courier New" font-size="14.00">F</text>
</g>
<!-- forBody -->
<g id="node2" class="node">
<title>forBody</title>
<polygon fill="none" stroke="black" points="54.99,-919.5 54.99,-1120.3 306.23,-1120.3 306.23,-919.5 54.99,-919.5"/>
<text text-anchor="start" x="62.99" y="-1103.7" font-family="Courier New" font-size="14.00">forBody:</text>
<text text-anchor="start" x="62.99" y="-1086.9" font-family="Courier New" font-size="14.00">i.2 = ϕ 1 i.3 entry1 ifEnd1</text>
<text text-anchor="start" x="62.99" y="-1070.1" font-family="Courier New" font-size="14.00">a.1 = ϕ 5 5 entry1 ifEnd1</text>
<text text-anchor="start" x="62.99" y="-1053.3" font-family="Courier New" font-size="14.00">call = CALL @print_int a.1</text>
<text text-anchor="start" x="62.99" y="-1036.5" font-family="Courier New" font-size="14.00">b.0 = COPY n</text>
<text text-anchor="start" x="62.99" y="-1019.7" font-family="Courier New" font-size="14.00">c.0 = COPY n</text>
<text text-anchor="start" x="62.99" y="-1002.9" font-family="Courier New" font-size="14.00">div = DIV i.2 2</text>
<text text-anchor="start" x="62.99" y="-986.1" font-family="Courier New" font-size="14.00">mul = MUL div 2</text>
<text text-anchor="start" x="62.99" y="-969.3" font-family="Courier New" font-size="14.00">rel1 = CMP_EQ mul i.2</text>
<text text-anchor="start" x="62.99" y="-952.5" font-family="Courier New" font-size="14.00">BR rel1 then else</text>
<polyline fill="none" stroke="black" points="54.99,-944.3 306.23,-944.3"/>
<text text-anchor="middle" x="117.69" y="-927.7" font-family="Courier New" font-size="14.00">T</text>
<polyline fill="none" stroke="black" points="180.39,-919.5 180.39,-944.3"/>
<text text-anchor="middle" x="243.09" y="-927.7" font-family="Courier New" font-size="14.00">F</text>
</g>
<!-- entry1&#45;&gt;forBody -->
<g id="edge1" class="edge">
<title>entry1:t-&gt;forBody</title>
<path fill="none" stroke="#008b00" d="M220.39,-1169.7C197.76,-1169.7 185.74,-1153.43 179.8,-1131.65"/>
<polygon fill="#008b00" stroke="#008b00" points="183.25,-1131.05 177.67,-1122.04 176.41,-1132.56 183.25,-1131.05"/>
</g>
<!-- forEnd -->
<g id="node8" class="node">
<title>forEnd</title>
<polygon fill="none" stroke="black" points="307.4,-191.3 307.4,-291.3 457.82,-291.3 457.82,-191.3 307.4,-191.3"/>
<text text-anchor="start" x="315.4" y="-274.7" font-family="Courier New" font-size="14.00">forEnd:</text>
<text text-anchor="start" x="315.4" y="-257.9" font-family="Courier New" font-size="14.00">a.5 = COPY 5</text>
<text text-anchor="start" x="315.4" y="-241.1" font-family="Courier New" font-size="14.00">rel4 = COPY 1</text>
<text text-anchor="start" x="315.4" y="-224.3" font-family="Courier New" font-size="14.00">BR 1 then2 else2</text>
<polyline fill="none" stroke="black" points="307.4,-216.1 457.82,-216.1"/>
<text text-anchor="middle" x="344.6" y="-199.5" font-family="Courier New" font-size="14.00">T</text>
<polyline fill="none" stroke="black" points="381.8,-191.3 381.8,-216.1"/>
<text text-anchor="middle" x="419.5" y="-199.5" font-family="Courier New" font-size="14.00">F</text>
</g>
<!-- entry1&#45;&gt;forEnd -->
<g id="edge2" class="edge">
<title>entry1:f-&gt;forEnd</title>
<path fill="none" stroke="red" d="M414.2,-1169.7C561.96,-1169.7 427.61,-985.26 427.61,-837.5 427.61,-837.5 427.61,-837.5 427.61,-552.3 427.61,-452.17 427.5,-426.14 408.61,-327.8 407.02,-319.54 404.94,-310.94 402.64,-302.51"/>
<polygon fill="red" stroke="red" points="406.05,-301.7 399.94,-293.04 399.32,-303.62 406.05,-301.7"/>
</g>
<!-- then -->
<g id="node3" class="node">
<title>then</title>
<polygon fill="none" stroke="black" points="0,-807.3 0,-865.7 125.22,-865.7 125.22,-807.3 0,-807.3"/>
<text text-anchor="start" x="8" y="-849.1" font-family="Courier New" font-size="14.00">then:</text>
<text text-anchor="start" x="8" y="-832.3" font-family="Courier New" font-size="14.00">if.1 = COPY 1</text>
<text text-anchor="start" x="8" y="-815.5" font-family="Courier New" font-size="14.00">BR ifEnd</text>
</g>
<!-- forBody&#45;&gt;then -->
<g id="edge3" class="edge">
<title>forBody:t-&gt;then</title>
<path fill="none" stroke="#008b00" d="M53.99,-931.9C30.49,-931.9 35.89,-902.52 45.26,-876.54"/>
<polygon fill="#008b00" stroke="#008b00" points="48.42,-878.08 48.75,-867.49 41.89,-875.56 48.42,-878.08"/>
</g>
<!-- else -->
<g id="node4" class="node">
<title>else</title>
<polygon fill="none" stroke="black" points="202.8,-790.5 202.8,-882.5 336.42,-882.5 336.42,-790.5 202.8,-790.5"/>
<text text-anchor="start" x="210.8" y="-865.9" font-family="Courier New" font-size="14.00">else:</text>
<text text-anchor="start" x="210.8" y="-849.1" font-family="Courier New" font-size="14.00">c.1 = COPY i.2</text>
<text text-anchor="start" x="210.8" y="-832.3" font-family="Courier New" font-size="14.00">b.1 = COPY i.2</text>
<text text-anchor="start" x="210.8" y="-815.5" font-family="Courier New" font-size="14.00">if.0 = COPY 1</text>
<text text-anchor="start" x="210.8" y="-798.7" font-family="Courier New" font-size="14.00">BR ifEnd</text>
</g>
<!-- forBody&#45;&gt;else -->
<g id="edge4" class="edge">
<title>forBody:f-&gt;else</title>
<path fill="none" stroke="red" d="M243.09,-919C243.09,-910.62 244.38,-901.98 246.38,-893.61"/>
<polygon fill="red" stroke="red" points="249.67,-894.82 248.97,-884.25 242.93,-892.95 249.67,-894.82"/>
</g>
<!-- ifEnd -->
<g id="node5" class="node">
<title>ifEnd</title>
<polygon fill="none" stroke="black" points="181.79,-627.9 181.79,-753.5 399.43,-753.5 399.43,-627.9 181.79,-627.9"/>
<text text-anchor="start" x="189.79" y="-736.9" font-family="Courier New" font-size="14.00">ifEnd:</text>
<text text-anchor="start" x="189.79" y="-720.1" font-family="Courier New" font-size="14.00">b.2 = ϕ n i.2 then else</text>
<text text-anchor="start" x="189.79" y="-703.3" font-family="Courier New" font-size="14.00">if.2 = COPY 1</text>
<text text-anchor="start" x="189.79" y="-686.5" font-family="Courier New" font-size="14.00">c.2 = COPY b.2</text>
<text text-anchor="start" x="189.79" y="-669.7" font-family="Courier New" font-size="14.00">s.1 = COPY 1</text>
<text text-anchor="start" x="189.79" y="-652.9" font-family="Courier New" font-size="14.00">rel2 = COPY 1</text>
<text text-anchor="start" x="189.79" y="-636.1" font-family="Courier New" font-size="14.00">BR then1</text>
</g>
<!-- then&#45;&gt;ifEnd -->
<g id="edge5" class="edge">
<title>then-&gt;ifEnd</title>
<path fill="none" stroke="black" d="M107.93,-806.92C129.44,-793.35 156.16,-776.5 182.46,-759.91"/>
<polygon fill="black" stroke="black" points="184.24,-762.92 190.84,-754.63 180.51,-757 184.24,-762.92"/>
</g>
<!-- else&#45;&gt;ifEnd -->
<g id="edge6" class="edge">
<title>else-&gt;ifEnd</title>
<path fill="none" stroke="black" d="M276.25,-790C277.41,-782.05 278.65,-773.6 279.89,-765.11"/>
<polygon fill="black" stroke="black" points="283.31,-765.89 281.29,-755.49 276.39,-764.88 283.31,-765.89"/>
</g>
<!-- then1 -->
<g id="node6" class="node">
<title>then1</title>
<polygon fill="none" stroke="black" points="217.8,-515.7 217.8,-590.9 351.42,-590.9 351.42,-515.7 217.8,-515.7"/>
<text text-anchor="start" x="225.8" y="-574.3" font-family="Courier New" font-size="14.00">then1:</text>
<text text-anchor="start" x="225.8" y="-557.5" font-family="Courier New" font-size="14.00">a.3 = COPY 5</text>
<text text-anchor="start" x="225.8" y="-540.7" font-family="Courier New" font-size="14.00">if1.1 = COPY 5</text>
<text text-anchor="start" x="225.8" y="-523.9" font-family="Courier New" font-size="14.00">BR ifEnd1</text>
</g>
<!-- ifEnd&#45;&gt;then1 -->
<g id="edge7" class="edge">
<title>ifEnd-&gt;then1</title>
<path fill="none" stroke="black" d="M287.85,-627.55C287.49,-619.23 287.11,-610.81 286.76,-602.77"/>
<polygon fill="black" stroke="black" points="290.26,-602.69 286.32,-592.86 283.26,-603 290.26,-602.69"/>
</g>
<!-- ifEnd1 -->
<g id="node7" class="node">
<title>ifEnd1</title>
<polygon fill="none" stroke="black" points="157.19,-328.3 157.19,-478.7 400.03,-478.7 400.03,-328.3 157.19,-328.3"/>
<text text-anchor="start" x="165.19" y="-462.1" font-family="Courier New" font-size="14.00">ifEnd1:</text>
<text text-anchor="start" x="165.19" y="-445.3" font-family="Courier New" font-size="14.00">a.4 = COPY 5</text>
<text text-anchor="start" x="165.19" y="-428.5" font-family="Courier New" font-size="14.00">call1 = CALL @print_int b.2</text>
<text text-anchor="start" x="165.19" y="-411.7" font-family="Courier New" font-size="14.00">call2 = CALL @print_int b.2</text>
<text text-anchor="start" x="165.19" y="-394.9" font-family="Courier New" font-size="14.00">i.3 = ADD i.2 1</text>
<text text-anchor="start" x="165.19" y="-378.1" font-family="Courier New" font-size="14.00">rel3 = CMP_LE i.3 n</text>
<text text-anchor="start" x="165.19" y="-361.3" font-family="Courier New" font-size="14.00">BR rel3 forBody forEnd</text>
<polyline fill="none" stroke="black" points="157.19,-353.1 400.03,-353.1"/>
<text text-anchor="middle" x="217.89" y="-336.5" font-family="Courier New" font-size="14.00">T</text>
<polyline fill="none" stroke="black" points="278.59,-328.3 278.59,-353.1"/>
<text text-anchor="middle" x="339.29" y="-336.5" font-family="Courier New" font-size="14.00">F</text>
</g>
<!-- then1&#45;&gt;ifEnd1 -->
<g id="edge8" class="edge">
<title>then1-&gt;ifEnd1</title>
<path fill="none" stroke="black" d="M283.11,-515.39C282.79,-507.57 282.45,-499.01 282.09,-490.22"/>
<polygon fill="black" stroke="black" points="285.6,-490.37 281.69,-480.52 278.6,-490.65 285.6,-490.37"/>
</g>
<!-- ifEnd1&#45;&gt;forBody -->
<g id="edge9" class="edge">
<title>ifEnd1:t-&gt;forBody</title>
<path fill="none" stroke="#008b00" d="M156.19,-340.7C100.13,-340.7 140.93,-715.59 165.55,-907.92"/>
<polygon fill="#008b00" stroke="#008b00" points="162.06,-908.22 166.8,-917.69 169,-907.33 162.06,-908.22"/>
</g>
<!-- ifEnd1&#45;&gt;forEnd -->
<g id="edge10" class="edge">
<title>ifEnd1:f-&gt;forEnd</title>
<path fill="none" stroke="red" d="M339.29,-327.8C339.29,-319.02 341.13,-310.24 344.05,-301.81"/>
<polygon fill="red" stroke="red" points="347.2,-303.35 347.7,-292.77 340.71,-300.73 347.2,-303.35"/>
</g>
<!-- then2 -->
<g id="node9" class="node">
<title>then2</title>
<polygon fill="none" stroke="black" points="238.8,-95.9 238.8,-154.3 372.42,-154.3 372.42,-95.9 238.8,-95.9"/>
<text text-anchor="start" x="246.8" y="-137.7" font-family="Courier New" font-size="14.00">then2:</text>
<text text-anchor="start" x="246.8" y="-120.9" font-family="Courier New" font-size="14.00">if2.1 = COPY 5</text>
<text text-anchor="start" x="246.8" y="-104.1" font-family="Courier New" font-size="14.00">BR ifEnd2</text>
</g>
<!-- forEnd&#45;&gt;then2 -->
<g id="edge11" class="edge">
<title>forEnd:t-&gt;then2</title>
<path fill="none" stroke="#008b00" d="M344.6,-190.8C344.6,-181.57 341.65,-172.52 337.38,-164.26"/>
<polygon fill="#008b00" stroke="#008b00" points="340.52,-162.7 332.39,-155.91 334.51,-166.29 340.52,-162.7"/>
</g>
<!-- else2 -->
<g id="node10" class="node">
<title>else2</title>
<polygon fill="none" stroke="black" points="390.8,-95.9 390.8,-154.3 524.42,-154.3 524.42,-95.9 390.8,-95.9"/>
<text text-anchor="start" x="398.8" y="-137.7" font-family="Courier New" font-size="14.00">else2:</text>
<text text-anchor="start" x="398.8" y="-120.9" font-family="Courier New" font-size="14.00">if2.0 = COPY 6</text>
<text text-anchor="start" x="398.8" y="-104.1" font-family="Courier New" font-size="14.00">BR ifEnd2</text>
</g>
<!-- forEnd&#45;&gt;else2 -->
<g id="edge12" class="edge">
<title>forEnd:f-&gt;else2</title>
<path fill="none" stroke="red" d="M419.5,-190.8C419.5,-181.73 422.32,-172.8 426.42,-164.62"/>
<polygon fill="red" stroke="red" points="429.43,-166.41 431.43,-156 423.38,-162.89 429.43,-166.41"/>
</g>
<!-- ifEnd2 -->
<g id="node11" class="node">
<title>ifEnd2</title>
<polygon fill="none" stroke="black" points="264.39,-0.5 264.39,-58.9 498.83,-58.9 498.83,-0.5 264.39,-0.5"/>
<text text-anchor="start" x="272.39" y="-42.3" font-family="Courier New" font-size="14.00">ifEnd2:</text>
<text text-anchor="start" x="272.39" y="-25.5" font-family="Courier New" font-size="14.00">if2.2 = ϕ 5 6 then2 else2</text>
<text text-anchor="start" x="272.39" y="-8.7" font-family="Courier New" font-size="14.00">RET if2.2</text>
</g>
<!-- then2&#45;&gt;ifEnd2 -->
<g id="edge13" class="edge">
<title>then2-&gt;ifEnd2</title>
<path fill="none" stroke="black" d="M328.82,-95.57C335.83,-86.96 343.63,-77.37 351.04,-68.27"/>
<polygon fill="black" stroke="black" points="353.72,-70.52 357.32,-60.55 348.29,-66.1 353.72,-70.52"/>
</g>
<!-- else2&#45;&gt;ifEnd2 -->
<g id="edge14" class="edge">
<title>else2-&gt;ifEnd2</title>
<path fill="none" stroke="black" d="M434.39,-95.57C427.39,-86.96 419.59,-77.37 412.18,-68.27"/>
<polygon fill="black" stroke="black" points="414.93,-66.1 405.9,-60.55 409.5,-70.52 414.93,-66.1"/>
</g>
</g>
</svg>