<svg xmlns="http://www.w3.org/2000/svg" xmlns:xlink="http://www.w3.org/1999/xlink" width="607pt" height="1341pt" viewBox="0.00 0.00 607.02 1341.00">
<g id="graph0" class="graph" transform="scale(1 1) rotate(0) translate(4 1337)">
<title>CFG</title>
<polygon fill="white" stroke="none" points="-4,4 -4,-1337 603.02,-1337 603.02,4 -4,4"/>
<!-- entry1 -->
<g id="node1" class="node">
<title>entry1</title>
<polygon fill="none" stroke="black" points="260.39,-1182.1 260.39,-1332.5 452.82,-1332.5 452.82,-1182.1 260.39,-1182.1"/>
<text text-anchor="start" x="268.39" y="-1315.9" font-family="Courier New" font-size="14.00">entry1:</text>
<text text-anchor="start" x="268.39" y="-1299.1" font-family="Courier New" font-size="14.00">s.0 = COPY 0</text>
<text text-anchor="start" x="268.39" y="-1282.3" font-family="Courier New" font-size="14.00">i.0 = COPY 0</text>
<text text-anchor="start" x="268.39" y="-1265.5" font-family="Courier New" font-size="14.00">a.0 = COPY 5</text>
<text text-anchor="start" x="268.39" y="-1248.7" font-family="Courier New" font-size="14.00">i.1 = COPY 1</text>
<text text-anchor="start" x="268.39" y="-1231.9" font-family="Courier New" font-size="14.00">rel = CMP_LE 1 n</text>
<text text-anchor="start" x="268.39" y="-1215.1" font-family="Courier New" font-size="14.00">BR rel forBody forEnd</text>
<polyline fill="none" stroke="black" points="260.39,-1206.9 452.82,-1206.9"/>
<text text-anchor="middle" x="308.1" y="-1190.3" font-family="Courier New" font-size="14.00">T</text>
<polyline fill="none" stroke="black" points="355.8,-1182.1 355.8,-1206.9"/>
<text text-anchor="middle" x="404" y="-1190.3" font-family="Courier New" font-size="14.00">F</text>
</g>
<!-- forBody -->
<g id="node2" class="node">
<title>forBody</title>
<polygon fill="none" stroke="black" points="55.99,-944.3 55.99,-1145.1 307.23,-1145.1 307.23,-944.3 55.99,-944.3"/>
<text text-anchor="start" x="63.99" y="-1128.5" font-family="Courier New" font-size="14.00">forBody:</text>
<text text-anchor="start" x="63.99" y="-1111.7" font-family="Courier New" font-size="14.00">i.2 = ϕ 1 i.3 entry1 ifEnd1</text>
<text text-anchor="start" x="63.99" y="-1094.9" font-family="Courier New" font-size="14.00">a.1 = ϕ 5 a.4 entry1 ifEnd1</text>
<text text-anchor="start" x="63.99" y="-1078.1" font-family="Courier New" font-size="14.00">call = CALL @print_int a.1</text>
<text text-anchor="start" x="63.99" y="-1061.3" font-family="Courier New" font-size="14.00">b.0 = COPY n</text>
<text text-anchor="start" x="63.99" y="-1044.5" font-family="Courier New" font-size="14.00">c.0 = COPY n</text>
<text text-anchor="start" x="63.99" y="-1027.7" font-family="Courier New" font-size="14.00">div = DIV i.2 2</text>
<text text-anchor="start" x="63.99" y="-1010.9" font-family="Courier New" font-size="14.00">mul = MUL div 2</text>
<text text-anchor="start" x="63.99" y="-994.1" font-family="Courier New" font-size="14.00">rel1 = CMP_EQ mul i.2</text>
<text text-anchor="start" x="63.99" y="-977.3" font-family="Courier New" font-size="14.00">BR rel1 then else</text>
<polyline fill="none" stroke="black" points="55.99,-969.1 307.23,-969.1"/>
<text text-anchor="middle" x="118.69" y="-952.5" font-family="Courier New" font-size="14.00">T</text>
<polyline fill="none" stroke="black" points="181.39,-944.3 181.39,-969.1"/>
<text text-anchor="middle" x="244.09" y="-952.5" font-family="Courier New" font-size="14.00">F</text>
</g>
<!-- entry1&#45;&gt;forBody -->
<g id="edge1" class="edge">
<title>entry1:t-&gt;forBody</title>
<path fill="none" stroke="#008b00" d="M259.39,-1194.5C234.38,-1194.5 217.4,-1177.78 205.87,-1155.56"/>
<polygon fill="#008b00" stroke="#008b00" points="209.15,-1154.31 201.75,-1146.74 202.81,-1157.28 209.15,-1154.31"/>
</g>
<!-- forEnd -->
<g id="node9" class="node">
<title>forEnd</title>
<polygon fill="none" stroke="black" points="306.99,-191.3 306.99,-291.3 558.23,-291.3 558.23,-191.3 306.99,-191.3"/>
<text text-anchor="start" x="314.99" y="-274.7" font-family="Courier New" font-size="14.00">forEnd:</text>
<text text-anchor="start" x="314.99" y="-257.9" font-family="Courier New" font-size="14.00">a.5 = ϕ 5 a.4 entry1 ifEnd1</text>
<text text-anchor="start" x="314.99" y="-241.1" font-family="Courier New" font-size="14.00">rel4 = CMP_EQ a.5 5</text>
<text text-anchor="start" x="314.99" y="-224.3" font-family="Courier New" font-size="14.00">BR rel4 then2 else2</text>
<polyline fill="none" stroke="black" points="306.99,-216.1 558.23,-216.1"/>
<text text-anchor="middle" x="369.69" y="-199.5" font-family="Courier New" font-size="14.00">T</text>
<polyline fill="none" stroke="black" points="432.39,-191.3 432.39,-216.1"/>
<text text-anchor="middle" x="495.09" y="-199.5" font-family="Courier New" font-size="14.00">F</text>
</g>
<!-- entry1&#45;&gt;forEnd -->
<g id="edge2" class="edge">
<title>entry1:f-&gt;forEnd</title>
<path fill="none" stroke="red" d="M453.2,-1194.5C602.53,-1194.5 503.61,-1011.63 503.61,-862.3 503.61,-862.3 503.61,-862.3 503.61,-552.3 503.61,-463.62 475.66,-364.2 454.84,-302.42"/>
<polygon fill="red" stroke="red" points="458.21,-301.46 451.66,-293.14 451.59,-303.73 458.21,-301.46"/>
</g>
<!-- then -->
<g id="node3" class="node">
<title>then</title>
<polygon fill="none" stroke="black" points="0,-832.1 0,-890.5 125.22,-890.5 125.22,-832.1 0,-832.1"/>
<text text-anchor="start" x="8" y="-873.9" font-family="Courier New" font-size="14.00">then:</text>
<text text-anchor="start" x="8" y="-857.1" font-family="Courier New" font-size="14.00">if.1 = COPY 1</text>
<text text-anchor="start" x="8" y="-840.3" font-family="Courier New" font-size="14.00">BR ifEnd</text>
</g>
<!-- forBody&#45;&gt;then -->
<g id="edge3" class="edge">
<title>forBody:t-&gt;then</title>
<path fill="none" stroke="#008b00" d="M54.99,-956.7C31.51,-956.7 36.6,-927.32 45.69,-901.34"/>
<polygon fill="#008b00" stroke="#008b00" points="48.85,-902.89 49.08,-892.3 42.29,-900.43 48.85,-902.89"/>
</g>
<!-- else -->
<g id="node4" class="node">
<title>else</title>
<polygon fill="none" stroke="black" points="205.8,-815.3 205.8,-907.3 339.42,-907.3 339.42,-815.3 205.8,-815.3"/>
<text text-anchor="start" x="213.8" y="-890.7" font-family="Courier New" font-size="14.00">else:</text>
<text text-anchor="start" x="213.8" y="-873.9" font-family="Courier New" font-size="14.00">c.1 = COPY i.2</text>
<text text-anchor="start" x="213.8" y="-857.1" font-family="Courier New" font-size="14.00">b.1 = COPY i.2</text>
<text text-anchor="start" x="213.8" y="-840.3" font-family="Courier New" font-size="14.00">if.0 = COPY 1</text>
<text text-anchor="start" x="213.8" y="-823.5" font-family="Courier New" font-size="14.00">BR ifEnd</text>
</g>
<!-- forBody&#45;&gt;else -->
<g id="edge4" class="edge">
<title>forBody:f-&gt;else</title>
<path fill="none" stroke="red" d="M244.09,-943.8C244.09,-935.36 245.47,-926.68 247.63,-918.29"/>
<polygon fill="red" stroke="red" points="250.92,-919.5 250.42,-908.91 244.21,-917.5 250.92,-919.5"/>
</g>
<!-- ifEnd -->
<g id="node5" class="node">
<title>ifEnd</title>
<polygon fill="none" stroke="black" points="187.79,-627.9 187.79,-778.3 405.43,-778.3 405.43,-627.9 187.79,-627.9"/>
<text text-anchor="start" x="195.79" y="-761.7" font-family="Courier New" font-size="14.00">ifEnd:</text>
<text text-anchor="start" x="195.79" y="-744.9" font-family="Courier New" font-size="14.00">b.2 = ϕ n i.2 then else</text>
<text text-anchor="start" x="195.79" y="-728.1" font-family="Courier New" font-size="14.00">if.2 = COPY 1</text>
<text text-anchor="start" x="195.79" y="-711.3" font-family="Courier New" font-size="14.00">c.2 = COPY b.2</text>
<text text-anchor="start" x="195.79" y="-694.5" font-family="Courier New" font-size="14.00">s.1 = COPY 1</text>
<text text-anchor="start" x="195.79" y="-677.7" font-family="Courier New" font-size="14.00">rel2 = COPY 1</text>
<text text-anchor="start" x="195.79" y="-660.9" font-family="Courier New" font-size="14.00">BR 1 then1 else1</text>
<polyline fill="none" stroke="black" points="187.79,-652.7 405.43,-652.7"/>
<text text-anchor="middle" x="241.99" y="-636.1" font-family="Courier New" font-size="14.00">T</text>
<polyline fill="none" stroke="black" points="296.19,-627.9 296.19,-652.7"/>
<text text-anchor="middle" x="350.39" y="-636.1" font-family="Courier New" font-size="14.00">F</text>
</g>
<!-- then&#45;&gt;ifEnd -->
<g id="edge5" class="edge">
<title>then-&gt;ifEnd</title>
<path fill="none" stroke="black" d="M105.53,-831.65C126.3,-817.78 152.37,-800.39 178.5,-782.94"/>
<polygon fill="black" stroke="black" points="180.11,-786.07 186.49,-777.61 176.22,-780.25 180.11,-786.07"/>
</g>
<!-- else&#45;&gt;ifEnd -->
<g id="edge6" class="edge">
<title>else-&gt;ifEnd</title>
<path fill="none" stroke="black" d="M279.55,-815.12C280.79,-807.07 282.11,-798.46 283.45,-789.72"/>
<polygon fill="black" stroke="black" points="286.87,-790.52 284.93,-780.1 279.95,-789.45 286.87,-790.52"/>
</g>
<!-- then1 -->
<g id="node6" class="node">
<title>then1</title>
<polygon fill="none" stroke="black" points="181.8,-515.7 181.8,-590.9 315.42,-590.9 315.42,-515.7 181.8,-515.7"/>
<text text-anchor="start" x="189.8" y="-574.3" font-family="Courier New" font-size="14.00">then1:</text>
<text text-anchor="start" x="189.8" y="-557.5" font-family="Courier New" font-size="14.00">a.3 = COPY 5</text>
<text text-anchor="start" x="189.8" y="-540.7" font-family="Courier New" font-size="14.00">if1.1 = COPY 5</text>
<text text-anchor="start" x="189.8" y="-523.9" font-family="Courier New" font-size="14.00">BR ifEnd1</text>
</g>
<!-- ifEnd&#45;&gt;then1 -->
<g id="edge7" class="edge">
<title>ifEnd:t-&gt;then1</title>
<path fill="none" stroke="#008b00" d="M241.99,-627.4C241.99,-619.35 242.4,-610.81 243,-602.53"/>
<polygon fill="#008b00" stroke="#008b00" points="246.49,-602.82 243.85,-592.56 239.52,-602.23 246.49,-602.82"/>
</g>
<!-- else1 -->
<g id="node7" class="node">
<title>else1</title>
<polygon fill="none" stroke="black" points="333.6,-515.7 333.6,-590.9 475.62,-590.9 475.62,-515.7 333.6,-515.7"/>
<text text-anchor="start" x="341.6" y="-574.3" font-family="Courier New" font-size="14.00">else1:</text>
<text text-anchor="start" x="341.6" y="-557.5" font-family="Courier New" font-size="14.00">a.2 = COPY 10</text>
<text text-anchor="start" x="341.6" y="-540.7" font-family="Courier New" font-size="14.00">if1.0 = COPY 10</text>
<text text-anchor="start" x="341.6" y="-523.9" font-family="Courier New" font-size="14.00">BR ifEnd1</text>
</g>
<!-- ifEnd&#45;&gt;else1 -->
<g id="edge8" class="edge">
<title>ifEnd:f-&gt;else1</title>
<path fill="none" stroke="red" d="M405.6,-640.3C423.23,-640.3 424.38,-621.99 420.51,-602.27"/>
<polygon fill="red" stroke="red" points="423.96,-601.67 418.26,-592.74 417.15,-603.28 423.96,-601.67"/>
</g>
<!-- ifEnd1 -->
<g id="node8" class="node">
<title>ifEnd1</title>
<polygon fill="none" stroke="black" points="180.19,-328.3 180.19,-478.7 423.03,-478.7 423.03,-328.3 180.19,-328.3"/>
<text text-anchor="start" x="188.19" y="-462.1" font-family="Courier New" font-size="14.00">ifEnd1:</text>
<text text-anchor="start" x="188.19" y="-445.3" font-family="Courier New" font-size="14.00">a.4 = ϕ 5 10 then1 else1</text>
<text text-anchor="start" x="188.19" y="-428.5" font-family="Courier New" font-size="14.00">call1 = CALL @print_int b.2</text>
<text text-anchor="start" x="188.19" y="-411.7" font-family="Courier New" font-size="14.00">call2 = CALL @print_int b.2</text>
<text text-anchor="start" x="188.19" y="-394.9" font-family="Courier New" font-size="14.00">i.3 = ADD i.2 1</text>
<text text-anchor="start" x="188.19" y="-378.1" font-family="Courier New" font-size="14.00">rel3 = CMP_LE i.3 n</text>
<text text-anchor="start" x="188.19" y="-361.3" font-family="Courier New" font-size="14.00">BR rel3 forBody forEnd</text>
<polyline fill="none" stroke="black" points="180.19,-353.1 423.03,-353.1"/>
<text text-anchor="middle" x="240.89" y="-336.5" font-family="Courier New" font-size="14.00">T</text>
<polyline fill="none" stroke="black" points="301.59,-328.3 301.59,-353.1"/>
<text text-anchor="middle" x="362.29" y="-336.5" font-family="Courier New" font-size="14.00">F</text>
</g>
<!-- then1&#45;&gt;ifEnd1 -->
<g id="edge9" class="edge">
<title>then1-&gt;ifEnd1</title>
<path fill="none" stroke="black" d="M261.85,-515.39C264.71,-507.4 267.85,-498.63 271.08,-489.64"/>
<polygon fill="black" stroke="black" points="274.3,-491.03 274.38,-480.43 267.71,-488.66 274.3,-491.03"/>
</g>
<!-- else1&#45;&gt;ifEnd1 -->
<g id="edge10" class="edge">
<title>else1-&gt;ifEnd1</title>
<path fill="none" stroke="black" d="M378.88,-515.39C373.01,-506.96 366.54,-497.67 359.92,-488.17"/>
<polygon fill="black" stroke="black" points="362.99,-486.45 354.4,-480.25 357.24,-490.45 362.99,-486.45"/>
</g>
<!-- ifEnd1&#45;&gt;forBody -->
<g id="edge11" class="edge">
<title>ifEnd1:t-&gt;forBody</title>
<path fill="none" stroke="#008b00" d="M179.19,-340.7C62.23,-340.7 121.75,-734.72 159.06,-932.79"/>
<polygon fill="#008b00" stroke="#008b00" points="155.62,-933.44 160.92,-942.61 162.5,-932.13 155.62,-933.44"/>
</g>
<!-- ifEnd1&#45;&gt;forEnd -->
<g id="edge12" class="edge">
<title>ifEnd1:f-&gt;forEnd</title>
<path fill="none" stroke="red" d="M423.99,-340.7C442.44,-340.7 446.91,-323.32 445.88,-303.17"/>
<polygon fill="red" stroke="red" points="449.37,-302.92 444.95,-293.3 442.41,-303.58 449.37,-302.92"/>
</g>
<!-- then2 -->
<g id="node10" class="node">
<title>then2</title>
<polygon fill="none" stroke="black" points="271.4,-95.9 271.4,-154.3 421.82,-154.3 421.82,-95.9 271.4,-95.9"/>
<text text-anchor="start" x="279.4" y="-137.7" font-family="Courier New" font-size="14.00">then2:</text>
<text text-anchor="start" x="279.4" y="-120.9" font-family="Courier New" font-size="14.00">if2.1 = COPY a.5</text>
<text text-anchor="start" x="279.4" y="-104.1" font-family="Courier New" font-size="14.00">BR ifEnd2</text>
</g>
<!-- forEnd&#45;&gt;then2 -->
<g id="edge13" class="edge">
<title>forEnd:t-&gt;then2</title>
<path fill="none" stroke="#008b00" d="M369.69,-190.8C369.69,-182.35 367.92,-173.63 365.37,-165.43"/>
<polygon fill="#008b00" stroke="#008b00" points="368.68,-164.29 362,-156.07 362.09,-166.66 368.68,-164.29"/>
</g>
<!-- else2 -->
<g id="node11" class="node">
<title>else2</title>
<polygon fill="none" stroke="black" points="440.2,-95.9 440.2,-154.3 599.02,-154.3 599.02,-95.9 440.2,-95.9"/>
<text text-anchor="start" x="448.2" y="-137.7" font-family="Courier New" font-size="14.00">else2:</text>
<text text-anchor="start" x="448.2" y="-120.9" font-family="Courier New" font-size="14.00">if2.0 = ADD a.5 1</text>
<text text-anchor="start" x="448.2" y="-104.1" font-family="Courier New" font-size="14.00">BR ifEnd2</text>
</g>
<!-- forEnd&#45;&gt;else2 -->
<g id="edge14" class="edge">
<title>forEnd:f-&gt;else2</title>
<path fill="none" stroke="red" d="M495.09,-190.8C495.09,-182.2 497.01,-173.34 499.77,-165.05"/>
<polygon fill="red" stroke="red" points="502.95,-166.55 503.26,-155.96 496.41,-164.05 502.95,-166.55"/>
</g>
<!-- ifEnd2 -->
<g id="node12" class="node">
<title>ifEnd2</title>
<polygon fill="none" stroke="black" points="290.19,-0.5 290.19,-58.9 575.03,-58.9 575.03,-0.5 290.19,-0.5"/>
<text text-anchor="start" x="298.19" y="-42.3" font-family="Courier New" font-size="14.00">ifEnd2:</text>
<text text-anchor="start" x="298.19" y="-25.5" font-family="Courier New" font-size="14.00">if2.2 = ϕ a.5 if2.0 then2 else2</text>
<text text-anchor="start" x="298.19" y="-8.7" font-family="Courier New" font-size="14.00">RET if2.2</text>
</g>
<!-- then2&#45;&gt;ifEnd2 -->
<g id="edge15" class="edge">
<title>then2-&gt;ifEnd2</title>
<path fill="none" stroke="black" d="M372.88,-95.57C380.97,-86.78 390,-76.97 398.54,-67.7"/>
<polygon fill="black" stroke="black" points="400.98,-70.22 405.18,-60.49 395.83,-65.48 400.98,-70.22"/>
</g>
<!-- else2&#45;&gt;ifEnd2 -->
<g id="edge16" class="edge">
<title>else2-&gt;ifEnd2</title>
<path fill="none" stroke="black" d="M493.03,-95.57C484.85,-86.78 475.71,-76.97 467.07,-67.7"/>
<polygon fill="black" stroke="black" points="469.73,-65.42 460.35,-60.49 464.61,-70.19 469.73,-65.42"/>
</g>
</g>
</svg>