<svg xmlns="http://www.w3.org/2000/svg" xmlns:xlink="http://www.w3.org/1999/xlink" width="307pt" height="611pt" viewBox="0.00 0.00 307.47 610.80">
<g id="graph0" class="graph" transform="scale(1 1) rotate(0) translate(4 606.8)">
<title>CFG</title>
<polygon fill="white" stroke="none" points="-4,4 -4,-606.8 303.47,-606.8 303.47,4 -4,4"/>
<!-- entry1 -->
<g id="node1" class="node">
<title>entry1</title>
<polygon fill="none" stroke="black" points="107.05,-519.1 107.05,-602.3 299.47,-602.3 299.47,-519.1 107.05,-519.1"/>
<text text-anchor="start" x="115.05" y="-585.7" font-family="Courier New" font-size="14.00">entry1:</text>
<text text-anchor="start" x="115.05" y="-568.9" font-family="Courier New" font-size="14.00">rel = CMP_LE 1 n</text>
<text text-anchor="start" x="115.05" y="-552.1" font-family="Courier New" font-size="14.00">BR rel forBody forEnd</text>
<polyline fill="none" stroke="black" points="107.05,-543.9 299.47,-543.9"/>
<text text-anchor="middle" x="154.75" y="-527.3" font-family="Courier New" font-size="14.00">T</text>
<polyline fill="none" stroke="black" points="202.45,-519.1 202.45,-543.9"/>
<text text-anchor="middle" x="250.65" y="-527.3" font-family="Courier New" font-size="14.00">F</text>
</g>
<!-- forBody -->
<g id="node2" class="node">
<title>forBody</title>
<polygon fill="none" stroke="black" points="0.64,-406.9 0.64,-482.1 251.88,-482.1 251.88,-406.9 0.64,-406.9"/>
<text text-anchor="start" x="8.64" y="-465.5" font-family="Courier New" font-size="14.00">forBody:</text>
<text text-anchor="start" x="8.64" y="-448.7" font-family="Courier New" font-size="14.00">i.2 = ϕ 1 i.3 entry1 ifEnd1</text>
<text text-anchor="start" x="8.64" y="-431.9" font-family="Courier New" font-size="14.00">call = CALL @print_int 5</text>
<text text-anchor="start" x="8.64" y="-415.1" font-family="Courier New" font-size="14.00">BR ifEnd1</text>
</g>
<!-- entry1&#45;&gt;forBody -->
<g id="edge1" class="edge">
<title>entry1:t-&gt;forBody</title>
<path fill="none" stroke="#008b00" d="M154.75,-518.6C154.75,-510.08 153.04,-501.35 150.47,-493.03"/>
<polygon fill="#008b00" stroke="#008b00" points="153.84,-492.05 147.17,-483.81 147.25,-494.4 153.84,-492.05"/>
</g>
<!-- forEnd -->
<g id="node4" class="node">
<title>forEnd</title>
<polygon fill="none" stroke="black" points="195.65,-157.7 195.65,-199.3 278.87,-199.3 278.87,-157.7 195.65,-157.7"/>
<text text-anchor="start" x="203.65" y="-182.7" font-family="Courier New" font-size="14.00">forEnd:</text>
<text text-anchor="start" x="203.65" y="-165.9" font-family="Courier New" font-size="14.00">BR then2</text>
</g>
<!-- entry1&#45;&gt;forEnd -->
<g id="edge2" class="edge">
<title>entry1:f-&gt;forEnd</title>
<path fill="none" stroke="red" d="M250.65,-518.6C250.65,-501.92 258.88,-499.11 261.26,-482.6 276.93,-374.04 283.21,-343.27 261.26,-235.8 259.51,-227.21 256.39,-218.31 252.97,-210.19"/>
<polygon fill="red" stroke="red" points="256.16,-208.75 248.85,-201.09 249.79,-211.64 256.16,-208.75"/>
</g>
<!-- ifEnd1 -->
<g id="node3" class="node">
<title>ifEnd1</title>
<polygon fill="none" stroke="black" points="26.24,-236.3 26.24,-369.9 252.28,-369.9 252.28,-236.3 26.24,-236.3"/>
<text text-anchor="start" x="34.24" y="-353.3" font-family="Courier New" font-size="14.00">ifEnd1:</text>
<text text-anchor="start" x="34.24" y="-336.5" font-family="Courier New" font-size="14.00">call1 = CALL @print_int n</text>
<text text-anchor="start" x="34.24" y="-319.7" font-family="Courier New" font-size="14.00">call2 = CALL @print_int n</text>
<text text-anchor="start" x="34.24" y="-302.9" font-family="Courier New" font-size="14.00">i.3 = ADD i.2 1</text>
<text text-anchor="start" x="34.24" y="-286.1" font-family="Courier New" font-size="14.00">rel3 = CMP_LE i.3 n</text>
<text text-anchor="start" x="34.24" y="-269.3" font-family="Courier New" font-size="14.00">BR rel3 forBody forEnd</text>
<polyline fill="none" stroke="black" points="26.24,-261.1 252.28,-261.1"/>
<text text-anchor="middle" x="82.44" y="-244.5" font-family="Courier New" font-size="14.00">T</text>
<polyline fill="none" stroke="black" points="138.64,-236.3 138.64,-261.1"/>
<text text-anchor="middle" x="195.35" y="-244.5" font-family="Courier New" font-size="14.00">F</text>
</g>
<!-- forBody&#45;&gt;ifEnd1 -->
<g id="edge3" class="edge">
<title>forBody-&gt;ifEnd1</title>
<path fill="none" stroke="black" d="M129.71,-406.51C130.43,-398.77 131.22,-390.33 132.02,-381.74"/>
<polygon fill="black" stroke="black" points="135.49,-382.17 132.94,-371.89 128.52,-381.52 135.49,-382.17"/>
</g>
<!-- ifEnd1&#45;&gt;forBody -->
<g id="edge4" class="edge">
<title>ifEnd1:t-&gt;forBody</title>
<path fill="none" stroke="#008b00" d="M82.44,-235.3C82.44,-210.32 43.75,-218.48 26.24,-236.3 -15.52,-278.82 -0.74,-317.26 26.24,-370.4 31.72,-381.19 39.63,-390.77 48.62,-399.15"/>
<polygon fill="#008b00" stroke="#008b00" points="46.15,-401.64 56.01,-405.52 50.72,-396.34 46.15,-401.64"/>
</g>
<!-- ifEnd1&#45;&gt;forEnd -->
<g id="edge5" class="edge">
<title>ifEnd1:f-&gt;forEnd</title>
<path fill="none" stroke="red" d="M195.35,-235.8C195.35,-225.9 199.56,-216.62 205.32,-208.56"/>
<polygon fill="red" stroke="red" points="208.01,-210.8 211.67,-200.85 202.61,-206.34 208.01,-210.8"/>
</g>
<!-- then2 -->
<g id="node5" class="node">
<title>then2</title>
<polygon fill="none" stroke="black" points="191.45,-79.1 191.45,-120.7 283.07,-120.7 283.07,-79.1 191.45,-79.1"/>
<text text-anchor="start" x="199.45" y="-104.1" font-family="Courier New" font-size="14.00">then2:</text>
<text text-anchor="start" x="199.45" y="-87.3" font-family="Courier New" font-size="14.00">BR ifEnd2</text>
</g>
<!-- forEnd&#45;&gt;then2 -->
<g id="edge6" class="edge">
<title>forEnd-&gt;then2</title>
<path fill="none" stroke="black" d="M237.26,-157.37C237.26,-149.78 237.26,-140.95 237.26,-132.56"/>
<polygon fill="black" stroke="black" points="240.76,-132.67 237.26,-122.67 233.76,-132.67 240.76,-132.67"/>
</g>
<!-- ifEnd2 -->
<g id="node6" class="node">
<title>ifEnd2</title>
<polygon fill="none" stroke="black" points="199.86,-0.5 199.86,-42.1 274.67,-42.1 274.67,-0.5 199.86,-0.5"/>
<text text-anchor="start" x="207.86" y="-25.5" font-family="Courier New" font-size="14.00">ifEnd2:</text>
<text text-anchor="start" x="207.86" y="-8.7" font-family="Courier New" font-size="14.00">RET 5</text>
</g>
<!-- then2&#45;&gt;ifEnd2 -->
<g id="edge7" class="edge">
<title>then2-&gt;ifEnd2</title>
<path fill="none" stroke="black" d="M237.26,-78.77C237.26,-71.18 237.26,-62.35 237.26,-53.96"/>
<polygon fill="black" stroke="black" points="240.76,-54.07 237.26,-44.07 233.76,-54.07 240.76,-54.07"/>
</g>
</g>
</svg>