<svg xmlns="http://www.w3.org/2000/svg" xmlns:xlink="http://www.w3.org/1999/xlink" width="431pt" height="939pt" viewBox="0.00 0.00 430.62 938.60">
<g id="graph0" class="graph" transform="scale(1 1) rotate(0) translate(4 934.6)">
<title>CFG</title>
<polygon fill="white" stroke="none" points="-4,4 -4,-934.6 426.62,-934.6 426.62,4 -4,4"/>
<!-- entry1 -->
<g id="node1" class="node">
<title>entry1</title>
<polygon fill="none" stroke="black" points="173.39,-846.9 173.39,-930.1 365.82,-930.1 365.82,-846.9 173.39,-846.9"/>
<text text-anchor="start" x="181.39" y="-913.5" font-family="Courier New" font-size="14.00">entry1:</text>
<text text-anchor="start" x="181.39" y="-896.7" font-family="Courier New" font-size="14.00">rel = CMP_LE 1 n</text>
<text text-anchor="start" x="181.39" y="-879.9" font-family="Courier New" font-size="14.00">BR rel forBody forEnd</text>
<polyline fill="none" stroke="black" points="173.39,-871.7 365.82,-871.7"/>
<text text-anchor="middle" x="221.09" y="-855.1" font-family="Courier New" font-size="14.00">T</text>
<polyline fill="none" stroke="black" points="268.79,-846.9 268.79,-871.7"/>
<text text-anchor="middle" x="316.99" y="-855.1" font-family="Courier New" font-size="14.00">F</text>
</g>
<!-- forBody -->
<g id="node2" class="node">
<title>forBody</title>
<polygon fill="none" stroke="black" points="6.99,-659.5 6.99,-809.9 258.22,-809.9 258.22,-659.5 6.99,-659.5"/>
<text text-anchor="start" x="14.99" y="-793.3" font-family="Courier New" font-size="14.00">forBody:</text>
<text text-anchor="start" x="14.99" y="-776.5" font-family="Courier New" font-size="14.00">i.2 = ϕ 1 i.3 entry1 ifEnd1</text>
<text text-anchor="start" x="14.99" y="-759.7" font-family="Courier New" font-size="14.00">call = CALL @print_int 5</text>
<text text-anchor="start" x="14.99" y="-742.9" font-family="Courier New" font-size="14.00">div = DIV i.2 2</text>
<text text-anchor="start" x="14.99" y="-726.1" font-family="Courier New" font-size="14.00">mul = MUL div 2</text>
<text text-anchor="start" x="14.99" y="-709.3" font-family="Courier New" font-size="14.00">rel1 = CMP_EQ mul i.2</text>
<text text-anchor="start" x="14.99" y="-692.5" font-family="Courier New" font-size="14.00">BR rel1 then else</text>
<polyline fill="none" stroke="black" points="6.99,-684.3 258.22,-684.3"/>
<text text-anchor="middle" x="69.69" y="-667.7" font-family="Courier New" font-size="14.00">T</text>
<polyline fill="none" stroke="black" points="132.39,-659.5 132.39,-684.3"/>
<text text-anchor="middle" x="195.09" y="-667.7" font-family="Courier New" font-size="14.00">F</text>
</g>
<!-- entry1&#45;&gt;forBody -->
<g id="edge1" class="edge">
<title>entry1:t-&gt;forBody</title>
<path fill="none" stroke="#008b00" d="M172.39,-859.3C151.08,-859.3 140.08,-842.45 134.69,-821.19"/>
<polygon fill="#008b00" stroke="#008b00" points="138.16,-820.67 132.72,-811.58 131.3,-822.08 138.16,-820.67"/>
</g>
<!-- forEnd -->
<g id="node8" class="node">
<title>forEnd</title>
<polygon fill="none" stroke="black" points="299,-157.7 299,-199.3 382.21,-199.3 382.21,-157.7 299,-157.7"/>
<text text-anchor="start" x="307" y="-182.7" font-family="Courier New" font-size="14.00">forEnd:</text>
<text text-anchor="start" x="307" y="-165.9" font-family="Courier New" font-size="14.00">BR then2</text>
</g>
<!-- entry1&#45;&gt;forEnd -->
<g id="edge2" class="edge">
<title>entry1:f-&gt;forEnd</title>
<path fill="none" stroke="red" d="M366.19,-859.3C480.56,-859.3 385.61,-717.07 385.61,-602.7 385.61,-602.7 385.61,-602.7 385.61,-426.7 385.61,-341.44 389.01,-318.07 366.61,-235.8 364.24,-227.13 360.66,-218.13 356.9,-209.94"/>
<polygon fill="red" stroke="red" points="360.12,-208.56 352.61,-201.09 353.83,-211.62 360.12,-208.56"/>
</g>
<!-- then -->
<g id="node3" class="node">
<title>then</title>
<polygon fill="none" stroke="black" points="0,-580.9 0,-622.5 83.21,-622.5 83.21,-580.9 0,-580.9"/>
<text text-anchor="start" x="8" y="-605.9" font-family="Courier New" font-size="14.00">then:</text>
<text text-anchor="start" x="8" y="-589.1" font-family="Courier New" font-size="14.00">BR ifEnd</text>
</g>
<!-- forBody&#45;&gt;then -->
<g id="edge3" class="edge">
<title>forBody:t-&gt;then</title>
<path fill="none" stroke="#008b00" d="M69.69,-659C69.69,-650.04 66.8,-641.04 62.88,-632.94"/>
<polygon fill="#008b00" stroke="#008b00" points="65.95,-631.26 58.03,-624.23 59.84,-634.67 65.95,-631.26"/>
</g>
<!-- else -->
<g id="node4" class="node">
<title>else</title>
<polygon fill="none" stroke="black" points="174,-580.9 174,-622.5 257.21,-622.5 257.21,-580.9 174,-580.9"/>
<text text-anchor="start" x="182" y="-605.9" font-family="Courier New" font-size="14.00">else:</text>
<text text-anchor="start" x="182" y="-589.1" font-family="Courier New" font-size="14.00">BR ifEnd</text>
</g>
<!-- forBody&#45;&gt;else -->
<g id="edge4" class="edge">
<title>forBody:f-&gt;else</title>
<path fill="none" stroke="red" d="M195.09,-659C195.09,-650.42 197.22,-641.52 200.11,-633.4"/>
<polygon fill="red" stroke="red" points="203.28,-634.9 203.81,-624.32 196.8,-632.25 203.28,-634.9"/>
</g>
<!-- ifEnd -->
<g id="node5" class="node">
<title>ifEnd</title>
<polygon fill="none" stroke="black" points="139.79,-485.5 139.79,-543.9 357.42,-543.9 357.42,-485.5 139.79,-485.5"/>
<text text-anchor="start" x="147.79" y="-527.3" font-family="Courier New" font-size="14.00">ifEnd:</text>
<text text-anchor="start" x="147.79" y="-510.5" font-family="Courier New" font-size="14.00">b.2 = ϕ n i.2 then else</text>
<text text-anchor="start" x="147.79" y="-493.7" font-family="Courier New" font-size="14.00">BR then1</text>
</g>
<!-- then&#45;&gt;ifEnd -->
<g id="edge5" class="edge">
<title>then-&gt;ifEnd</title>
<path fill="none" stroke="black" d="M83.5,-583.5C107.91,-573.48 139.5,-560.5 168.51,-548.59"/>
<polygon fill="black" stroke="black" points="169.74,-551.87 177.67,-544.83 167.09,-545.39 169.74,-551.87"/>
</g>
<!-- else&#45;&gt;ifEnd -->
<g id="edge6" class="edge">
<title>else-&gt;ifEnd</title>
<path fill="none" stroke="black" d="M223.43,-580.56C226.41,-572.88 229.92,-563.84 233.35,-554.99"/>
<polygon fill="black" stroke="black" points="236.56,-556.38 236.92,-545.8 230.04,-553.85 236.56,-556.38"/>
</g>
<!-- then1 -->
<g id="node6" class="node">
<title>then1</title>
<polygon fill="none" stroke="black" points="196.8,-406.9 196.8,-448.5 288.41,-448.5 288.41,-406.9 196.8,-406.9"/>
<text text-anchor="start" x="204.8" y="-431.9" font-family="Courier New" font-size="14.00">then1:</text>
<text text-anchor="start" x="204.8" y="-415.1" font-family="Courier New" font-size="14.00">BR ifEnd1</text>
</g>
<!-- ifEnd&#45;&gt;then1 -->
<g id="edge7" class="edge">
<title>ifEnd-&gt;then1</title>
<path fill="none" stroke="black" d="M246.61,-485.4C246.04,-477.35 245.42,-468.54 244.84,-460.31"/>
<polygon fill="black" stroke="black" points="248.33,-460.06 244.13,-450.33 241.35,-460.56 248.33,-460.06"/>
</g>
<!-- ifEnd1 -->
<g id="node7" class="node">
<title>ifEnd1</title>
<polygon fill="none" stroke="black" points="115.19,-236.3 115.19,-369.9 358.02,-369.9 358.02,-236.3 115.19,-236.3"/>
<text text-anchor="start" x="123.19" y="-353.3" font-family="Courier New" font-size="14.00">ifEnd1:</text>
<text text-anchor="start" x="123.19" y="-336.5" font-family="Courier New" font-size="14.00">call1 = CALL @print_int b.2</text>
<text text-anchor="start" x="123.19" y="-319.7" font-family="Courier New" font-size="14.00">call2 = CALL @print_int b.2</text>
<text text-anchor="start" x="123.19" y="-302.9" font-family="Courier New" font-size="14.00">i.3 = ADD i.2 1</text>
<text text-anchor="start" x="123.19" y="-286.1" font-family="Courier New" font-size="14.00">rel3 = CMP_LE i.3 n</text>
<text text-anchor="start" x="123.19" y="-269.3" font-family="Courier New" font-size="14.00">BR rel3 forBody forEnd</text>
<polyline fill="none" stroke="black" points="115.19,-261.1 358.02,-261.1"/>
<text text-anchor="middle" x="175.89" y="-244.5" font-family="Courier New" font-size="14.00">T</text>
<polyline fill="none" stroke="black" points="236.59,-236.3 236.59,-261.1"/>
<text text-anchor="middle" x="297.29" y="-244.5" font-family="Courier New" font-size="14.00">F</text>
</g>
<!-- then1&#45;&gt;ifEnd1 -->
<g id="edge8" class="edge">
<title>then1-&gt;ifEnd1</title>
<path fill="none" stroke="black" d="M241.61,-406.46C241.26,-399.25 240.84,-390.65 240.39,-381.53"/>
<polygon fill="black" stroke="black" points="243.9,-381.54 239.92,-371.73 236.91,-381.88 243.9,-381.54"/>
</g>
<!-- ifEnd1&#45;&gt;forBody -->
<g id="edge9" class="edge">
<title>ifEnd1:t-&gt;forBody</title>
<path fill="none" stroke="#008b00" d="M114.19,-248.7C35.17,-248.7 81.82,-509 112.41,-648.21"/>
<polygon fill="#008b00" stroke="#008b00" points="108.95,-648.76 114.53,-657.77 115.78,-647.25 108.95,-648.76"/>
</g>
<!-- ifEnd1&#45;&gt;forEnd -->
<g id="edge10" class="edge">
<title>ifEnd1:f-&gt;forEnd</title>
<path fill="none" stroke="red" d="M297.29,-235.8C297.29,-225.76 301.67,-216.42 307.64,-208.34"/>
<polygon fill="red" stroke="red" points="310.12,-210.83 313.93,-200.94 304.78,-206.29 310.12,-210.83"/>
</g>
<!-- then2 -->
<g id="node9" class="node">
<title>then2</title>
<polygon fill="none" stroke="black" points="294.8,-79.1 294.8,-120.7 386.41,-120.7 386.41,-79.1 294.8,-79.1"/>
<text text-anchor="start" x="302.8" y="-104.1" font-family="Courier New" font-size="14.00">then2:</text>
<text text-anchor="start" x="302.8" y="-87.3" font-family="Courier New" font-size="14.00">BR ifEnd2</text>
</g>
<!-- forEnd&#45;&gt;then2 -->
<g id="edge11" class="edge">
<title>forEnd-&gt;then2</title>
<path fill="none" stroke="black" d="M340.61,-157.37C340.61,-149.78 340.61,-140.95 340.61,-132.56"/>
<polygon fill="black" stroke="black" points="344.11,-132.67 340.61,-122.67 337.11,-132.67 344.11,-132.67"/>
</g>
<!-- ifEnd2 -->
<g id="node10" class="node">
<title>ifEnd2</title>
<polygon fill="none" stroke="black" points="303.2,-0.5 303.2,-42.1 378.01,-42.1 378.01,-0.5 303.2,-0.5"/>
<text text-anchor="start" x="311.2" y="-25.5" font-family="Courier New" font-size="14.00">ifEnd2:</text>
<text text-anchor="start" x="311.2" y="-8.7" font-family="Courier New" font-size="14.00">RET 5</text>
</g>
<!-- then2&#45;&gt;ifEnd2 -->
<g id="edge12" class="edge">
<title>then2-&gt;ifEnd2</title>
<path fill="none" stroke="black" d="M340.61,-78.77C340.61,-71.18 340.61,-62.35 340.61,-53.96"/>
<polygon fill="black" stroke="black" points="344.11,-54.07 340.61,-44.07 337.11,-54.07 344.11,-54.07"/>
</g>
</g>
</svg>