<svg xmlns="http://www.w3.org/2000/svg" xmlns:xlink="http://www.w3.org/1999/xlink" width="325pt" height="375pt" viewBox="0.00 0.00 324.83 375.00">
<g id="graph0" class="graph" transform="scale(1 1) rotate(0) translate(4 371)">
<title>CFG</title>
<polygon fill="white" stroke="none" points="-4,4 -4,-371 320.83,-371 320.83,4 -4,4"/>
<!-- entry1 -->
<g id="node1" class="node">
<title>entry1</title>
<polygon fill="none" stroke="black" points="124.4,-283.3 124.4,-366.5 316.83,-366.5 316.83,-283.3 124.4,-283.3"/>
<text text-anchor="start" x="132.4" y="-349.9" font-family="Courier New" font-size="14.00">entry1:</text>
<text text-anchor="start" x="132.4" y="-333.1" font-family="Courier New" font-size="14.00">rel = CMP_LE 1 n</text>
<text text-anchor="start" x="132.4" y="-316.3" font-family="Courier New" font-size="14.00">BR rel forBody ifEnd2</text>
<polyline fill="none" stroke="black" points="124.4,-308.1 316.83,-308.1"/>
<text text-anchor="middle" x="172.11" y="-291.5" font-family="Courier New" font-size="14.00">T</text>
<polyline fill="none" stroke="black" points="219.81,-283.3 219.81,-308.1"/>
<text text-anchor="middle" x="268.01" y="-291.5" font-family="Courier New" font-size="14.00">F</text>
</g>
<!-- forBody -->
<g id="node2" class="node">
<title>forBody</title>
<polygon fill="none" stroke="black" points="18,-79.1 18,-246.3 269.24,-246.3 269.24,-79.1 18,-79.1"/>
<text text-anchor="start" x="26" y="-229.7" font-family="Courier New" font-size="14.00">forBody:</text>
<text text-anchor="start" x="26" y="-212.9" font-family="Courier New" font-size="14.00">i.2 = ϕ 1 i.3 entry1 ifEnd1</text>
<text text-anchor="start" x="26" y="-196.1" font-family="Courier New" font-size="14.00">call = CALL @print_int 5</text>
<text text-anchor="start" x="26" y="-179.3" font-family="Courier New" font-size="14.00">call1 = CALL @print_int n</text>
<text text-anchor="start" x="26" y="-162.5" font-family="Courier New" font-size="14.00">call2 = CALL @print_int n</text>
<text text-anchor="start" x="26" y="-145.7" font-family="Courier New" font-size="14.00">i.3 = ADD i.2 1</text>
<text text-anchor="start" x="26" y="-128.9" font-family="Courier New" font-size="14.00">rel3 = CMP_LE i.3 n</text>
<text text-anchor="start" x="26" y="-112.1" font-family="Courier New" font-size="14.00">BR rel3 forBody ifEnd2</text>
<polyline fill="none" stroke="black" points="18,-103.9 269.24,-103.9"/>
<text text-anchor="middle" x="80.7" y="-87.3" font-family="Courier New" font-size="14.00">T</text>
<polyline fill="none" stroke="black" points="143.4,-79.1 143.4,-103.9"/>
<text text-anchor="middle" x="206.1" y="-87.3" font-family="Courier New" font-size="14.00">F</text>
</g>
<!-- entry1&#45;&gt;forBody -->
<g id="edge1" class="edge">
<title>entry1:t-&gt;forBody</title>
<path fill="none" stroke="#008b00" d="M172.11,-282.8C172.11,-274.69 171.47,-266.35 170.4,-258.03"/>
<polygon fill="#008b00" stroke="#008b00" points="173.87,-257.57 168.9,-248.22 166.95,-258.63 173.87,-257.57"/>
</g>
<!-- ifEnd2 -->
<g id="node3" class="node">
<title>ifEnd2</title>
<polygon fill="none" stroke="black" points="214.21,-0.5 214.21,-42.1 289.02,-42.1 289.02,-0.5 214.21,-0.5"/>
<text text-anchor="start" x="222.21" y="-25.5" font-family="Courier New" font-size="14.00">ifEnd2:</text>
<text text-anchor="start" x="222.21" y="-8.7" font-family="Courier New" font-size="14.00">RET 5</text>
</g>
<!-- entry1&#45;&gt;ifEnd2 -->
<g id="edge2" class="edge">
<title>entry1:f-&gt;ifEnd2</title>
<path fill="none" stroke="red" d="M268.01,-282.8C268.01,-266.12 276.24,-263.31 278.62,-246.8 289.3,-172.81 295.19,-151.49 278.62,-78.6 276.61,-69.78 273.05,-60.73 269.15,-52.53"/>
<polygon fill="red" stroke="red" points="272.3,-51 264.63,-43.69 266.07,-54.19 272.3,-51"/>
</g>
<!-- forBody&#45;&gt;forBody -->
<g id="edge3" class="edge">
<title>forBody:t-&gt;forBody</title>
<path fill="none" stroke="#008b00" d="M61.19,-78.64C24.13,-57.59 0,-66.27 0,-127.1 0,-140.94 3.64,-152.08 9.86,-160.79"/>
<polygon fill="#008b00" stroke="#008b00" points="7.25,-163.11 16.56,-168.17 12.43,-158.41 7.25,-163.11"/>
</g>
<!-- forBody&#45;&gt;ifEnd2 -->
<g id="edge4" class="edge">
<title>forBody:f-&gt;ifEnd2</title>
<path fill="none" stroke="red" d="M269.8,-91.5C287.18,-91.5 280.14,-70.84 270.18,-52.1"/>
<polygon fill="red" stroke="red" points="273.36,-50.62 265.39,-43.63 267.26,-54.06 273.36,-50.62"/>
</g>
</g>
</svg>