<svg xmlns="http://www.w3.org/2000/svg" xmlns:xlink="http://www.w3.org/1999/xlink" width="382pt" height="1291pt" viewBox="0.00 0.00 382.42 1291.40">
<g id="graph0" class="graph" transform="scale(1 1) rotate(0) translate(4 1287.4)">
<title>CFG</title>
<polygon fill="white" stroke="none" points="-4,4 -4,-1287.4 378.42,-1287.4 378.42,4 -4,4"/>
<!-- entry1 -->
<g id="node1" class="node">
<title>entry1</title>
<polygon fill="none" stroke="black" points="170.39,-1132.5 170.39,-1282.9 362.82,-1282.9 362.82,-1132.5 170.39,-1132.5"/>
<text text-anchor="start" x="178.39" y="-1266.3" font-family="Courier New" font-size="14.00">entry1:</text>
<text text-anchor="start" x="178.39" y="-1249.5" font-family="Courier New" font-size="14.00">s.0 = COPY 0</text>
<text text-anchor="start" x="178.39" y="-1232.7" font-family="Courier New" font-size="14.00">i.0 = COPY 0</text>
<text text-anchor="start" x="178.39" y="-1215.9" font-family="Courier New" font-size="14.00">a.0 = COPY 5</text>
<text text-anchor="start" x="178.39" y="-1199.1" font-family="Courier New" font-size="14.00">i.1 = COPY 1</text>
<text text-anchor="start" x="178.39" y="-1182.3" font-family="Courier New" font-size="14.00">rel = CMP_LE 1 n</text>
<text text-anchor="start" x="178.39" y="-1165.5" font-family="Courier New" font-size="14.00">BR rel forBody forEnd</text>
<polyline fill="none" stroke="black" points="170.39,-1157.3 362.82,-1157.3"/>
<text text-anchor="middle" x="218.1" y="-1140.7" font-family="Courier New" font-size="14.00">T</text>
<polyline fill="none" stroke="black" points="265.8,-1132.5 265.8,-1157.3"/>
<text text-anchor="middle" x="314" y="-1140.7" font-family="Courier New" font-size="14.00">F</text>
</g>
<!-- forBody -->
<g id="node2" class="node">
<title>forBody</title>
<polygon fill="none" stroke="black" points="41.99,-894.7 41.99,-1095.5 293.23,-1095.5 293.23,-894.7 41.99,-894.7"/>
<text text-anchor="start" x="49.99" y="-1078.9" font-family="Courier New" font-size="14.00">forBody:</text>
<text text-anchor="start" x="49.99" y="-1062.1" font-family="Courier New" font-size="14.00">i.2 = ϕ 1 i.3 entry1 ifEnd1</text>
<text text-anchor="start" x="49.99" y="-1045.3" font-family="Courier New" font-size="14.00">a.1 = COPY 5</text>
<text text-anchor="start" x="49.99" y="-1028.5" font-family="Courier New" font-size="14.00">call = CALL @print_int 5</text>
<text text-anchor="start" x="49.99" y="-1011.7" font-family="Courier New" font-size="14.00">b.0 = COPY n</text>
<text text-anchor="start" x="49.99" y="-994.9" font-family="Courier New" font-size="14.00">c.0 = COPY n</text>
<text text-anchor="start" x="49.99" y="-978.1" font-family="Courier New" font-size="14.00">div = DIV i.2 2</text>
<text text-anchor="start" x="49.99" y="-961.3" font-family="Courier New" font-size="14.00">mul = MUL div 2</text>
<text text-anchor="start" x="49.99" y="-944.5" font-family="Courier New" font-size="14.00">rel1 = CMP_EQ mul i.2</text>
<text text-anchor="start" x="49.99" y="-927.7" font-family="Courier New" font-size="14.00">BR rel1 then else</text>
<polyline fill="none" stroke="black" points="41.99,-919.5 293.23,-919.5"/>
<text text-anchor="middle" x="104.69" y="-902.9" font-family="Courier New" font-size="14.00">T</text>
<polyline fill="none" stroke="black" points="167.39,-894.7 167.39,-919.5"/>
<text text-anchor="middle" x="230.09" y="-902.9" font-family="Courier New" font-size="14.00">F</text>
</g>
<!-- entry1&#45;&gt;forBody -->
<g id="edge1" class="edge">
<title>entry1:t-&gt;forBody</title>
<path fill="none" stroke="#008b00" d="M218.1,-1132C218.1,-1123.78 217.27,-1115.45 215.84,-1107.16"/>
<polygon fill="#008b00" stroke="#008b00" points="219.27,-1106.48 213.83,-1097.39 212.42,-1107.89 219.27,-1106.48"/>
</g>
<!-- forEnd -->
<g id="node8" class="node">
<title>forEnd</title>
<polygon fill="none" stroke="black" points="245,-191.3 245,-266.5 370.22,-266.5 370.22,-191.3 245,-191.3"/>
<text text-anchor="start" x="253" y="-249.9" font-family="Courier New" font-size="14.00">forEnd:</text>
<text text-anchor="start" x="253" y="-233.1" font-family="Courier New" font-size="14.00">a.5 = COPY 5</text>
<text text-anchor="start" x="253" y="-216.3" font-family="Courier New" font-size="14.00">rel4 = COPY 1</text>
<text text-anchor="start" x="253" y="-199.5" font-family="Courier New" font-size="14.00">BR then2</text>
</g>
<!-- entry1&#45;&gt;forEnd -->
<g id="edge2" class="edge">
<title>entry1:f-&gt;forEnd</title>
<path fill="none" stroke="red" d="M314,-1132C314,-989.16 350.61,-955.54 350.61,-812.7 350.61,-812.7 350.61,-812.7 350.61,-527.5 350.61,-427.37 351.58,-401.12 331.61,-303 329.9,-294.63 327.55,-285.87 324.98,-277.45"/>
<polygon fill="red" stroke="red" points="328.37,-276.53 321.98,-268.08 321.7,-278.67 328.37,-276.53"/>
</g>
<!-- then -->
<g id="node3" class="node">
<title>then</title>
<polygon fill="none" stroke="black" points="0,-782.5 0,-840.9 125.22,-840.9 125.22,-782.5 0,-782.5"/>
<text text-anchor="start" x="8" y="-824.3" font-family="Courier New" font-size="14.00">then:</text>
<text text-anchor="start" x="8" y="-807.5" font-family="Courier New" font-size="14.00">if.1 = COPY 1</text>
<text text-anchor="start" x="8" y="-790.7" font-family="Courier New" font-size="14.00">BR ifEnd</text>
</g>
<!-- forBody&#45;&gt;then -->
<g id="edge3" class="edge">
<title>forBody:t-&gt;then</title>
<path fill="none" stroke="#008b00" d="M104.69,-894.2C104.69,-878.97 98.82,-863.75 91.46,-850.65"/>
<polygon fill="#008b00" stroke="#008b00" points="94.61,-849.09 86.41,-842.38 88.63,-852.74 94.61,-849.09"/>
</g>
<!-- else -->
<g id="node4" class="node">
<title>else</title>
<polygon fill="none" stroke="black" points="182,-765.7 182,-857.7 307.22,-857.7 307.22,-765.7 182,-765.7"/>
<text text-anchor="start" x="190" y="-841.1" font-family="Courier New" font-size="14.00">else:</text>
<text text-anchor="start" x="190" y="-824.3" font-family="Courier New" font-size="14.00">c.1 = COPY n</text>
<text text-anchor="start" x="190" y="-807.5" font-family="Courier New" font-size="14.00">b.1 = COPY n</text>
<text text-anchor="start" x="190" y="-790.7" font-family="Courier New" font-size="14.00">if.0 = COPY 1</text>
<text text-anchor="start" x="190" y="-773.9" font-family="Courier New" font-size="14.00">BR ifEnd</text>
</g>
<!-- forBody&#45;&gt;else -->
<g id="edge4" class="edge">
<title>forBody:f-&gt;else</title>
<path fill="none" stroke="red" d="M230.09,-894.2C230.09,-886.1 230.8,-877.61 231.89,-869.3"/>
<polygon fill="red" stroke="red" points="235.32,-870.05 233.38,-859.63 228.4,-868.99 235.32,-870.05"/>
</g>
<!-- ifEnd -->
<g id="node5" class="node">
<title>ifEnd</title>
<polygon fill="none" stroke="black" points="182,-603.1 182,-728.7 307.22,-728.7 307.22,-603.1 182,-603.1"/>
<text text-anchor="start" x="190" y="-712.1" font-family="Courier New" font-size="14.00">ifEnd:</text>
<text text-anchor="start" x="190" y="-695.3" font-family="Courier New" font-size="14.00">b.2 = COPY n</text>
<text text-anchor="start" x="190" y="-678.5" font-family="Courier New" font-size="14.00">if.2 = COPY 1</text>
<text text-anchor="start" x="190" y="-661.7" font-family="Courier New" font-size="14.00">c.2 = COPY n</text>
<text text-anchor="start" x="190" y="-644.9" font-family="Courier New" font-size="14.00">s.1 = COPY 1</text>
<text text-anchor="start" x="190" y="-628.1" font-family="Courier New" font-size="14.00">rel2 = COPY 1</text>
<text text-anchor="start" x="190" y="-611.3" font-family="Courier New" font-size="14.00">BR then1</text>
</g>
<!-- then&#45;&gt;ifEnd -->
<g id="edge5" class="edge">
<title>then-&gt;ifEnd</title>
<path fill="none" stroke="black" d="M98.57,-782.29C119.79,-765.52 147.41,-743.7 172.9,-723.55"/>
<polygon fill="black" stroke="black" points="174.96,-726.39 180.63,-717.45 170.62,-720.9 174.96,-726.39"/>
</g>
<!-- else&#45;&gt;ifEnd -->
<g id="edge6" class="edge">
<title>else-&gt;ifEnd</title>
<path fill="none" stroke="black" d="M244.61,-765.2C244.61,-757.34 244.61,-748.99 244.61,-740.6"/>
<polygon fill="black" stroke="black" points="248.11,-740.7 244.61,-730.7 241.11,-740.7 248.11,-740.7"/>
</g>
<!-- then1 -->
<g id="node6" class="node">
<title>then1</title>
<polygon fill="none" stroke="black" points="181.8,-490.9 181.8,-566.1 315.42,-566.1 315.42,-490.9 181.8,-490.9"/>
<text text-anchor="start" x="189.8" y="-549.5" font-family="Courier New" font-size="14.00">then1:</text>
<text text-anchor="start" x="189.8" y="-532.7" font-family="Courier New" font-size="14.00">a.3 = COPY 5</text>
<text text-anchor="start" x="189.8" y="-515.9" font-family="Courier New" font-size="14.00">if1.1 = COPY 5</text>
<text text-anchor="start" x="189.8" y="-499.1" font-family="Courier New" font-size="14.00">BR ifEnd1</text>
</g>
<!-- ifEnd&#45;&gt;then1 -->
<g id="edge7" class="edge">
<title>ifEnd-&gt;then1</title>
<path fill="none" stroke="black" d="M246.44,-602.75C246.69,-594.43 246.94,-586.01 247.18,-577.97"/>
<polygon fill="black" stroke="black" points="250.67,-578.16 247.47,-568.06 243.68,-577.95 250.67,-578.16"/>
</g>
<!-- ifEnd1 -->
<g id="node7" class="node">
<title>ifEnd1</title>
<polygon fill="none" stroke="black" points="96.59,-303.5 96.59,-453.9 322.63,-453.9 322.63,-303.5 96.59,-303.5"/>
<text text-anchor="start" x="104.59" y="-437.3" font-family="Courier New" font-size="14.00">ifEnd1:</text>
<text text-anchor="start" x="104.59" y="-420.5" font-family="Courier New" font-size="14.00">a.4 = COPY 5</text>
<text text-anchor="start" x="104.59" y="-403.7" font-family="Courier New" font-size="14.00">call1 = CALL @print_int n</text>
<text text-anchor="start" x="104.59" y="-386.9" font-family="Courier New" font-size="14.00">call2 = CALL @print_int n</text>
<text text-anchor="start" x="104.59" y="-370.1" font-family="Courier New" font-size="14.00">i.3 = ADD i.2 1</text>
<text text-anchor="start" x="104.59" y="-353.3" font-family="Courier New" font-size="14.00">rel3 = CMP_LE i.3 n</text>
<text text-anchor="start" x="104.59" y="-336.5" font-family="Courier New" font-size="14.00">BR rel3 forBody forEnd</text>
<polyline fill="none" stroke="black" points="96.59,-328.3 322.63,-328.3"/>
<text text-anchor="middle" x="152.79" y="-311.7" font-family="Courier New" font-size="14.00">T</text>
<polyline fill="none" stroke="black" points="208.99,-303.5 208.99,-328.3"/>
<text text-anchor="middle" x="265.69" y="-311.7" font-family="Courier New" font-size="14.00">F</text>
</g>
<!-- then1&#45;&gt;ifEnd1 -->
<g id="edge8" class="edge">
<title>then1-&gt;ifEnd1</title>
<path fill="none" stroke="black" d="M238.87,-490.59C236.78,-482.68 234.5,-474.02 232.15,-465.13"/>
<polygon fill="black" stroke="black" points="235.59,-464.45 229.66,-455.67 228.82,-466.23 235.59,-464.45"/>
</g>
<!-- ifEnd1&#45;&gt;forBody -->
<g id="edge9" class="edge">
<title>ifEnd1:t-&gt;forBody</title>
<path fill="none" stroke="#008b00" d="M95.59,-315.9C34.03,-315.9 92.35,-392.99 96.59,-454.4 102.19,-535.33 132.21,-750.42 151.39,-883.34"/>
<polygon fill="#008b00" stroke="#008b00" points="147.87,-883.46 152.76,-892.86 154.8,-882.46 147.87,-883.46"/>
</g>
<!-- ifEnd1&#45;&gt;forEnd -->
<g id="edge10" class="edge">
<title>ifEnd1:f-&gt;forEnd</title>
<path fill="none" stroke="red" d="M265.69,-303C265.69,-294.05 268.09,-285.2 271.73,-276.92"/>
<polygon fill="red" stroke="red" points="274.8,-278.61 276.24,-268.12 268.57,-275.43 274.8,-278.61"/>
</g>
<!-- then2 -->
<g id="node9" class="node">
<title>then2</title>
<polygon fill="none" stroke="black" points="240.8,-95.9 240.8,-154.3 374.42,-154.3 374.42,-95.9 240.8,-95.9"/>
<text text-anchor="start" x="248.8" y="-137.7" font-family="Courier New" font-size="14.00">then2:</text>
<text text-anchor="start" x="248.8" y="-120.9" font-family="Courier New" font-size="14.00">if2.1 = COPY 5</text>
<text text-anchor="start" x="248.8" y="-104.1" font-family="Courier New" font-size="14.00">BR ifEnd2</text>
</g>
<!-- forEnd&#45;&gt;then2 -->
<g id="edge11" class="edge">
<title>forEnd-&gt;then2</title>
<path fill="none" stroke="black" d="M307.61,-190.86C307.61,-182.75 307.61,-174.12 307.61,-165.9"/>
<polygon fill="black" stroke="black" points="311.11,-166.17 307.61,-156.17 304.11,-166.17 311.11,-166.17"/>
</g>
<!-- ifEnd2 -->
<g id="node10" class="node">
<title>ifEnd2</title>
<polygon fill="none" stroke="black" points="240.8,-0.5 240.8,-58.9 374.42,-58.9 374.42,-0.5 240.8,-0.5"/>
<text text-anchor="start" x="248.8" y="-42.3" font-family="Courier New" font-size="14.00">ifEnd2:</text>
<text text-anchor="start" x="248.8" y="-25.5" font-family="Courier New" font-size="14.00">if2.2 = COPY 5</text>
<text text-anchor="start" x="248.8" y="-8.7" font-family="Courier New" font-size="14.00">RET 5</text>
</g>
<!-- then2&#45;&gt;ifEnd2 -->
<g id="edge12" class="edge">
<title>then2-&gt;ifEnd2</title>
<path fill="none" stroke="black" d="M307.61,-95.57C307.61,-87.77 307.61,-79.16 307.61,-70.84"/>
<polygon fill="black" stroke="black" points="311.11,-70.89 307.61,-60.89 304.11,-70.89 311.11,-70.89"/>
</g>
</g>
</svg>