<svg xmlns="http://www.w3.org/2000/svg" xmlns:xlink="http://www.w3.org/1999/xlink" width="307pt" height="454pt" viewBox="0.00 0.00 307.47 453.60">
<g id="graph0" class="graph" transform="scale(1 1) rotate(0) translate(4 449.6)">
<title>CFG</title>
<polygon fill="white" stroke="none" points="-4,4 -4,-449.6 303.47,-449.6 303.47,4 -4,4"/>
<!-- entry1 -->
<g id="node1" class="node">
<title>entry1</title>
<polygon fill="none" stroke="black" points="107.05,-361.9 107.05,-445.1 299.47,-445.1 299.47,-361.9 107.05,-361.9"/>
<text text-anchor="start" x="115.05" y="-428.5" font-family="Courier New" font-size="14.00">entry1:</text>
<text text-anchor="start" x="115.05" y="-411.7" font-family="Courier New" font-size="14.00">rel = CMP_LE 1 n</text>
<text text-anchor="start" x="115.05" y="-394.9" font-family="Courier New" font-size="14.00">BR rel forBody ifEnd2</text>
<polyline fill="none" stroke="black" points="107.05,-386.7 299.47,-386.7"/>
<text text-anchor="middle" x="154.75" y="-370.1" font-family="Courier New" font-size="14.00">T</text>
<polyline fill="none" stroke="black" points="202.45,-361.9 202.45,-386.7"/>
<text text-anchor="middle" x="250.65" y="-370.1" font-family="Courier New" font-size="14.00">F</text>
</g>
<!-- forBody -->
<g id="node2" class="node">
<title>forBody</title>
<polygon fill="none" stroke="black" points="0.64,-249.7 0.64,-324.9 251.88,-324.9 251.88,-249.7 0.64,-249.7"/>
<text text-anchor="start" x="8.64" y="-308.3" font-family="Courier New" font-size="14.00">forBody:</text>
<text text-anchor="start" x="8.64" y="-291.5" font-family="Courier New" font-size="14.00">i.2 = ϕ 1 i.3 entry1 ifEnd1</text>
<text text-anchor="start" x="8.64" y="-274.7" font-family="Courier New" font-size="14.00">call = CALL @print_int 5</text>
<text text-anchor="start" x="8.64" y="-257.9" font-family="Courier New" font-size="14.00">BR ifEnd1</text>
</g>
<!-- entry1&#45;&gt;forBody -->
<g id="edge1" class="edge">
<title>entry1:t-&gt;forBody</title>
<path fill="none" stroke="#008b00" d="M154.75,-361.4C154.75,-352.88 153.04,-344.15 150.47,-335.83"/>
<polygon fill="#008b00" stroke="#008b00" points="153.84,-334.85 147.17,-326.61 147.25,-337.2 153.84,-334.85"/>
</g>
<!-- ifEnd2 -->
<g id="node4" class="node">
<title>ifEnd2</title>
<polygon fill="none" stroke="black" points="199.86,-0.5 199.86,-42.1 274.67,-42.1 274.67,-0.5 199.86,-0.5"/>
<text text-anchor="start" x="207.86" y="-25.5" font-family="Courier New" font-size="14.00">ifEnd2:</text>
<text text-anchor="start" x="207.86" y="-8.7" font-family="Courier New" font-size="14.00">RET 5</text>
</g>
<!-- entry1&#45;&gt;ifEnd2 -->
<g id="edge2" class="edge">
<title>entry1:f-&gt;ifEnd2</title>
<path fill="none" stroke="red" d="M250.65,-361.4C250.65,-344.72 258.88,-341.91 261.26,-325.4 276.93,-216.84 283.21,-186.07 261.26,-78.6 259.51,-70.01 256.39,-61.11 252.97,-52.99"/>
<polygon fill="red" stroke="red" points="256.16,-51.55 248.85,-43.89 249.79,-54.44 256.16,-51.55"/>
</g>
<!-- ifEnd1 -->
<g id="node3" class="node">
<title>ifEnd1</title>
<polygon fill="none" stroke="black" points="26.24,-79.1 26.24,-212.7 252.28,-212.7 252.28,-79.1 26.24,-79.1"/>
<text text-anchor="start" x="34.24" y="-196.1" font-family="Courier New" font-size="14.00">ifEnd1:</text>
<text text-anchor="start" x="34.24" y="-179.3" font-family="Courier New" font-size="14.00">call1 = CALL @print_int n</text>
<text text-anchor="start" x="34.24" y="-162.5" font-family="Courier New" font-size="14.00">call2 = CALL @print_int n</text>
<text text-anchor="start" x="34.24" y="-145.7" font-family="Courier New" font-size="14.00">i.3 = ADD i.2 1</text>
<text text-anchor="start" x="34.24" y="-128.9" font-family="Courier New" font-size="14.00">rel3 = CMP_LE i.3 n</text>
<text text-anchor="start" x="34.24" y="-112.1" font-family="Courier New" font-size="14.00">BR rel3 forBody ifEnd2</text>
<polyline fill="none" stroke="black" points="26.24,-103.9 252.28,-103.9"/>
<text text-anchor="middle" x="82.44" y="-87.3" font-family="Courier New" font-size="14.00">T</text>
<polyline fill="none" stroke="black" points="138.64,-79.1 138.64,-103.9"/>
<text text-anchor="middle" x="195.35" y="-87.3" font-family="Courier New" font-size="14.00">F</text>
</g>
<!-- forBody&#45;&gt;ifEnd1 -->
<g id="edge3" class="edge">
<title>forBody-&gt;ifEnd1</title>
<path fill="none" stroke="black" d="M129.71,-249.31C130.43,-241.57 131.22,-233.13 132.02,-224.54"/>
<polygon fill="black" stroke="black" points="135.49,-224.97 132.94,-214.69 128.52,-224.32 135.49,-224.97"/>
</g>
<!-- ifEnd1&#45;&gt;forBody -->
<g id="edge4" class="edge">
<title>ifEnd1:t-&gt;forBody</title>
<path fill="none" stroke="#008b00" d="M82.44,-78.1C82.44,-53.12 43.75,-61.28 26.24,-79.1 -15.52,-121.62 -0.74,-160.06 26.24,-213.2 31.72,-223.99 39.63,-233.57 48.62,-241.95"/>
<polygon fill="#008b00" stroke="#008b00" points="46.15,-244.44 56.01,-248.32 50.72,-239.14 46.15,-244.44"/>
</g>
<!-- ifEnd1&#45;&gt;ifEnd2 -->
<g id="edge5" class="edge">
<title>ifEnd1:f-&gt;ifEnd2</title>
<path fill="none" stroke="red" d="M195.35,-78.6C195.35,-68.7 199.56,-59.42 205.32,-51.36"/>
<polygon fill="red" stroke="red" points="208.01,-53.6 211.67,-43.65 202.61,-49.14 208.01,-53.6"/>
</g>
</g>
</svg>