<svg xmlns="http://www.w3.org/2000/svg" xmlns:xlink="http://www.w3.org/1999/xlink" width="307pt" height="532pt" viewBox="0.00 0.00 307.47 532.20">
<g id="graph0" class="graph" transform="scale(1 1) rotate(0) translate(4 528.2)">
<title>CFG</title>
<polygon fill="white" stroke="none" points="-4,4 -4,-528.2 303.47,-528.2 303.47,4 -4,4"/>
<!-- entry1 -->
<g id="node1" class="node">
<title>entry1</title>
<polygon fill="none" stroke="black" points="107.05,-440.5 107.05,-523.7 299.47,-523.7 299.47,-440.5 107.05,-440.5"/>
<text text-anchor="start" x="115.05" y="-507.1" font-family="Courier New" font-size="14.00">entry1:</text>
<text text-anchor="start" x="115.05" y="-490.3" font-family="Courier New" font-size="14.00">rel = CMP_LE 1 n</text>
<text text-anchor="start" x="115.05" y="-473.5" font-family="Courier New" font-size="14.00">BR rel forBody forEnd</text>
<polyline fill="none" stroke="black" points="107.05,-465.3 299.47,-465.3"/>
<text text-anchor="middle" x="154.75" y="-448.7" font-family="Courier New" font-size="14.00">T</text>
<polyline fill="none" stroke="black" points="202.45,-440.5 202.45,-465.3"/>
<text text-anchor="middle" x="250.65" y="-448.7" font-family="Courier New" font-size="14.00">F</text>
</g>
<!-- forBody -->
<g id="node2" class="node">
<title>forBody</title>
<polygon fill="none" stroke="black" points="0.64,-328.3 0.64,-403.5 251.88,-403.5 251.88,-328.3 0.64,-328.3"/>
<text text-anchor="start" x="8.64" y="-386.9" font-family="Courier New" font-size="14.00">forBody:</text>
<text text-anchor="start" x="8.64" y="-370.1" font-family="Courier New" font-size="14.00">i.2 = ϕ 1 i.3 entry1 ifEnd1</text>
<text text-anchor="start" x="8.64" y="-353.3" font-family="Courier New" font-size="14.00">call = CALL @print_int 5</text>
<text text-anchor="start" x="8.64" y="-336.5" font-family="Courier New" font-size="14.00">BR ifEnd1</text>
</g>
<!-- entry1&#45;&gt;forBody -->
<g id="edge1" class="edge">
<title>entry1:t-&gt;forBody</title>
<path fill="none" stroke="#008b00" d="M154.75,-440C154.75,-431.48 153.04,-422.75 150.47,-414.43"/>
<polygon fill="#008b00" stroke="#008b00" points="153.84,-413.45 147.17,-405.21 147.25,-415.8 153.84,-413.45"/>
</g>
<!-- forEnd -->
<g id="node4" class="node">
<title>forEnd</title>
<polygon fill="none" stroke="black" points="191.45,-79.1 191.45,-120.7 283.07,-120.7 283.07,-79.1 191.45,-79.1"/>
<text text-anchor="start" x="199.45" y="-104.1" font-family="Courier New" font-size="14.00">forEnd:</text>
<text text-anchor="start" x="199.45" y="-87.3" font-family="Courier New" font-size="14.00">BR ifEnd2</text>
</g>
<!-- entry1&#45;&gt;forEnd -->
<g id="edge2" class="edge">
<title>entry1:f-&gt;forEnd</title>
<path fill="none" stroke="red" d="M250.65,-440C250.65,-423.32 258.88,-420.51 261.26,-404 276.93,-295.44 283.21,-264.67 261.26,-157.2 259.51,-148.61 256.39,-139.71 252.97,-131.59"/>
<polygon fill="red" stroke="red" points="256.16,-130.15 248.85,-122.49 249.79,-133.04 256.16,-130.15"/>
</g>
<!-- ifEnd1 -->
<g id="node3" class="node">
<title>ifEnd1</title>
<polygon fill="none" stroke="black" points="26.24,-157.7 26.24,-291.3 252.28,-291.3 252.28,-157.7 26.24,-157.7"/>
<text text-anchor="start" x="34.24" y="-274.7" font-family="Courier New" font-size="14.00">ifEnd1:</text>
<text text-anchor="start" x="34.24" y="-257.9" font-family="Courier New" font-size="14.00">call1 = CALL @print_int n</text>
<text text-anchor="start" x="34.24" y="-241.1" font-family="Courier New" font-size="14.00">call2 = CALL @print_int n</text>
<text text-anchor="start" x="34.24" y="-224.3" font-family="Courier New" font-size="14.00">i.3 = ADD i.2 1</text>
<text text-anchor="start" x="34.24" y="-207.5" font-family="Courier New" font-size="14.00">rel3 = CMP_LE i.3 n</text>
<text text-anchor="start" x="34.24" y="-190.7" font-family="Courier New" font-size="14.00">BR rel3 forBody forEnd</text>
<polyline fill="none" stroke="black" points="26.24,-182.5 252.28,-182.5"/>
<text text-anchor="middle" x="82.44" y="-165.9" font-family="Courier New" font-size="14.00">T</text>
<polyline fill="none" stroke="black" points="138.64,-157.7 138.64,-182.5"/>
<text text-anchor="middle" x="195.35" y="-165.9" font-family="Courier New" font-size="14.00">F</text>
</g>
<!-- forBody&#45;&gt;ifEnd1 -->
<g id="edge3" class="edge">
<title>forBody-&gt;ifEnd1</title>
<path fill="none" stroke="black" d="M129.71,-327.91C130.43,-320.17 131.22,-311.73 132.02,-303.14"/>
<polygon fill="black" stroke="black" points="135.49,-303.57 132.94,-293.29 128.52,-302.92 135.49,-303.57"/>
</g>
<!-- ifEnd1&#45;&gt;forBody -->
<g id="edge4" class="edge">
<title>ifEnd1:t-&gt;forBody</title>
<path fill="none" stroke="#008b00" d="M82.44,-156.7C82.44,-131.72 43.75,-139.88 26.24,-157.7 -15.52,-200.22 -0.74,-238.66 26.24,-291.8 31.72,-302.59 39.63,-312.17 48.62,-320.55"/>
<polygon fill="#008b00" stroke="#008b00" points="46.15,-323.04 56.01,-326.92 50.72,-317.74 46.15,-323.04"/>
</g>
<!-- ifEnd1&#45;&gt;forEnd -->
<g id="edge5" class="edge">
<title>ifEnd1:f-&gt;forEnd</title>
<path fill="none" stroke="red" d="M195.35,-157.2C195.35,-147.3 199.56,-138.02 205.32,-129.96"/>
<polygon fill="red" stroke="red" points="208.01,-132.2 211.67,-122.25 202.61,-127.74 208.01,-132.2"/>
</g>
<!-- ifEnd2 -->
<g id="node5" class="node">
<title>ifEnd2</title>
<polygon fill="none" stroke="black" points="199.86,-0.5 199.86,-42.1 274.67,-42.1 274.67,-0.5 199.86,-0.5"/>
<text text-anchor="start" x="207.86" y="-25.5" font-family="Courier New" font-size="14.00">ifEnd2:</text>
<text text-anchor="start" x="207.86" y="-8.7" font-family="Courier New" font-size="14.00">RET 5</text>
</g>
<!-- forEnd&#45;&gt;ifEnd2 -->
<g id="edge6" class="edge">
<title>forEnd-&gt;ifEnd2</title>
<path fill="none" stroke="black" d="M237.26,-78.77C237.26,-71.18 237.26,-62.35 237.26,-53.96"/>
<polygon fill="black" stroke="black" points="240.76,-54.07 237.26,-44.07 233.76,-54.07 240.76,-54.07"/>
</g>
</g>
</svg>