<svg xmlns="http://www.w3.org/2000/svg" xmlns:xlink="http://www.w3.org/1999/xlink" width="554pt" height="925pt" viewBox="0.00 0.00 554.02 925.40">
<g id="graph0" class="graph" transform="scale(1 1) rotate(0) translate(4 921.4)">
<title>CFG</title>
<polygon fill="white" stroke="none" points="-4,4 -4,-921.4 550.02,-921.4 550.02,4 -4,4"/>
<!-- ifEnd2 -->
<g id="node1" class="node">
<title>ifEnd2</title>
<polygon fill="none" stroke="black" points="265,-858.5 265,-916.9 398.62,-916.9 398.62,-858.5 265,-858.5"/>
<text text-anchor="start" x="273" y="-900.3" font-family="Courier New" font-size="14.00">ifEnd2:</text>
<text text-anchor="start" x="273" y="-883.5" font-family="Courier New" font-size="14.00">if2.2 = COPY 5</text>
<text text-anchor="start" x="273" y="-866.7" font-family="Courier New" font-size="14.00">RET 5</text>
</g>
<!-- then2 -->
<g id="node2" class="node">
<title>then2</title>
<polygon fill="none" stroke="black" points="265,-763.1 265,-821.5 398.62,-821.5 398.62,-763.1 265,-763.1"/>
<text text-anchor="start" x="273" y="-804.9" font-family="Courier New" font-size="14.00">then2:</text>
<text text-anchor="start" x="273" y="-788.1" font-family="Courier New" font-size="14.00">if2.1 = COPY 5</text>
<text text-anchor="start" x="273" y="-771.3" font-family="Courier New" font-size="14.00">BR ifEnd2</text>
</g>
<!-- ifEnd2&#45;&gt;then2 -->
<g id="edge1" class="edge">
<title>ifEnd2-&gt;then2</title>
<path fill="none" stroke="black" d="M331.81,-858.17C331.81,-850.37 331.81,-841.76 331.81,-833.44"/>
<polygon fill="black" stroke="black" points="335.31,-833.49 331.81,-823.49 328.31,-833.49 335.31,-833.49"/>
</g>
<!-- forEnd -->
<g id="node3" class="node">
<title>forEnd</title>
<polygon fill="none" stroke="black" points="269.2,-650.9 269.2,-726.1 394.42,-726.1 394.42,-650.9 269.2,-650.9"/>
<text text-anchor="start" x="277.2" y="-709.5" font-family="Courier New" font-size="14.00">forEnd:</text>
<text text-anchor="start" x="277.2" y="-692.7" font-family="Courier New" font-size="14.00">a.5 = COPY 5</text>
<text text-anchor="start" x="277.2" y="-675.9" font-family="Courier New" font-size="14.00">rel4 = COPY 1</text>
<text text-anchor="start" x="277.2" y="-659.1" font-family="Courier New" font-size="14.00">BR then2</text>
</g>
<!-- then2&#45;&gt;forEnd -->
<g id="edge2" class="edge">
<title>then2-&gt;forEnd</title>
<path fill="none" stroke="black" d="M331.81,-762.67C331.81,-754.91 331.81,-746.29 331.81,-737.76"/>
<polygon fill="black" stroke="black" points="335.31,-737.8 331.81,-727.8 328.31,-737.8 335.31,-737.8"/>
</g>
<!-- ifEnd1 -->
<g id="node4" class="node">
<title>ifEnd1</title>
<polygon fill="none" stroke="black" points="92.39,-488.3 92.39,-613.9 335.23,-613.9 335.23,-488.3 92.39,-488.3"/>
<text text-anchor="start" x="100.39" y="-597.3" font-family="Courier New" font-size="14.00">ifEnd1:</text>
<text text-anchor="start" x="100.39" y="-580.5" font-family="Courier New" font-size="14.00">a.4 = COPY 5</text>
<text text-anchor="start" x="100.39" y="-563.7" font-family="Courier New" font-size="14.00">call1 = CALL @print_int b.2</text>
<text text-anchor="start" x="100.39" y="-546.9" font-family="Courier New" font-size="14.00">call2 = CALL @print_int b.2</text>
<text text-anchor="start" x="100.39" y="-530.1" font-family="Courier New" font-size="14.00">i.3 = ADD i.2 1</text>
<text text-anchor="start" x="100.39" y="-513.3" font-family="Courier New" font-size="14.00">rel3 = CMP_LE i.3 n</text>
<text text-anchor="start" x="100.39" y="-496.5" font-family="Courier New" font-size="14.00">BR rel3 forBody forEnd</text>
</g>
<!-- forEnd&#45;&gt;ifEnd1 -->
<g id="edge3" class="edge">
<title>forEnd-&gt;ifEnd1</title>
<path fill="none" stroke="black" d="M299.57,-650.5C292.02,-641.84 283.73,-632.33 275.37,-622.74"/>
<polygon fill="black" stroke="black" points="278.23,-620.69 269.02,-615.45 272.95,-625.29 278.23,-620.69"/>
</g>
<!-- entry1 -->
<g id="node10" class="node">
<title>entry1</title>
<polygon fill="none" stroke="black" points="353.6,-488.3 353.6,-613.9 546.02,-613.9 546.02,-488.3 353.6,-488.3"/>
<text text-anchor="start" x="361.6" y="-597.3" font-family="Courier New" font-size="14.00">entry1:</text>
<text text-anchor="start" x="361.6" y="-580.5" font-family="Courier New" font-size="14.00">s.0 = COPY 0</text>
<text text-anchor="start" x="361.6" y="-563.7" font-family="Courier New" font-size="14.00">i.0 = COPY 0</text>
<text text-anchor="start" x="361.6" y="-546.9" font-family="Courier New" font-size="14.00">a.0 = COPY 5</text>
<text text-anchor="start" x="361.6" y="-530.1" font-family="Courier New" font-size="14.00">i.1 = COPY 1</text>
<text text-anchor="start" x="361.6" y="-513.3" font-family="Courier New" font-size="14.00">rel = CMP_LE 1 n</text>
<text text-anchor="start" x="361.6" y="-496.5" font-family="Courier New" font-size="14.00">BR rel forBody forEnd</text>
</g>
<!-- forEnd&#45;&gt;entry1 -->
<g id="edge4" class="edge">
<title>forEnd-&gt;entry1</title>
<path fill="none" stroke="black" d="M364.05,-650.5C371.6,-641.84 379.89,-632.33 388.25,-622.74"/>
<polygon fill="black" stroke="black" points="390.66,-625.29 394.6,-615.45 385.39,-620.69 390.66,-625.29"/>
</g>
<!-- then1 -->
<g id="node5" class="node">
<title>then1</title>
<polygon fill="none" stroke="black" points="147,-376.1 147,-451.3 280.62,-451.3 280.62,-376.1 147,-376.1"/>
<text text-anchor="start" x="155" y="-434.7" font-family="Courier New" font-size="14.00">then1:</text>
<text text-anchor="start" x="155" y="-417.9" font-family="Courier New" font-size="14.00">a.3 = COPY 5</text>
<text text-anchor="start" x="155" y="-401.1" font-family="Courier New" font-size="14.00">if1.1 = COPY 5</text>
<text text-anchor="start" x="155" y="-384.3" font-family="Courier New" font-size="14.00">BR ifEnd1</text>
</g>
<!-- ifEnd1&#45;&gt;then1 -->
<g id="edge5" class="edge">
<title>ifEnd1-&gt;then1</title>
<path fill="none" stroke="black" d="M213.81,-487.95C213.81,-479.63 213.81,-471.21 213.81,-463.17"/>
<polygon fill="black" stroke="black" points="217.31,-463.26 213.81,-453.26 210.31,-463.26 217.31,-463.26"/>
</g>
<!-- ifEnd -->
<g id="node6" class="node">
<title>ifEnd</title>
<polygon fill="none" stroke="black" points="104.99,-213.5 104.99,-339.1 322.63,-339.1 322.63,-213.5 104.99,-213.5"/>
<text text-anchor="start" x="112.99" y="-322.5" font-family="Courier New" font-size="14.00">ifEnd:</text>
<text text-anchor="start" x="112.99" y="-305.7" font-family="Courier New" font-size="14.00">b.2 = ϕ n i.2 then else</text>
<text text-anchor="start" x="112.99" y="-288.9" font-family="Courier New" font-size="14.00">if.2 = COPY 1</text>
<text text-anchor="start" x="112.99" y="-272.1" font-family="Courier New" font-size="14.00">c.2 = COPY b.2</text>
<text text-anchor="start" x="112.99" y="-255.3" font-family="Courier New" font-size="14.00">s.1 = COPY 1</text>
<text text-anchor="start" x="112.99" y="-238.5" font-family="Courier New" font-size="14.00">rel2 = COPY 1</text>
<text text-anchor="start" x="112.99" y="-221.7" font-family="Courier New" font-size="14.00">BR then1</text>
</g>
<!-- then1&#45;&gt;ifEnd -->
<g id="edge6" class="edge">
<title>then1-&gt;ifEnd</title>
<path fill="none" stroke="black" d="M213.81,-375.7C213.81,-367.92 213.81,-359.44 213.81,-350.84"/>
<polygon fill="black" stroke="black" points="217.31,-351.03 213.81,-341.03 210.31,-351.03 217.31,-351.03"/>
</g>
<!-- else -->
<g id="node7" class="node">
<title>else</title>
<polygon fill="none" stroke="black" points="0,-42.5 0,-134.5 133.62,-134.5 133.62,-42.5 0,-42.5"/>
<text text-anchor="start" x="8" y="-117.9" font-family="Courier New" font-size="14.00">else:</text>
<text text-anchor="start" x="8" y="-101.1" font-family="Courier New" font-size="14.00">c.1 = COPY i.2</text>
<text text-anchor="start" x="8" y="-84.3" font-family="Courier New" font-size="14.00">b.1 = COPY i.2</text>
<text text-anchor="start" x="8" y="-67.5" font-family="Courier New" font-size="14.00">if.0 = COPY 1</text>
<text text-anchor="start" x="8" y="-50.7" font-family="Courier New" font-size="14.00">BR ifEnd</text>
</g>
<!-- ifEnd&#45;&gt;else -->
<g id="edge8" class="edge">
<title>ifEnd-&gt;else</title>
<path fill="none" stroke="black" d="M164.66,-213.17C146.83,-190.64 126.85,-165.39 109.62,-143.6"/>
<polygon fill="black" stroke="black" points="112.55,-141.67 103.6,-136 107.06,-146.01 112.55,-141.67"/>
</g>
<!-- then -->
<g id="node8" class="node">
<title>then</title>
<polygon fill="none" stroke="black" points="151.2,-59.3 151.2,-117.7 276.42,-117.7 276.42,-59.3 151.2,-59.3"/>
<text text-anchor="start" x="159.2" y="-101.1" font-family="Courier New" font-size="14.00">then:</text>
<text text-anchor="start" x="159.2" y="-84.3" font-family="Courier New" font-size="14.00">if.1 = COPY 1</text>
<text text-anchor="start" x="159.2" y="-67.5" font-family="Courier New" font-size="14.00">BR ifEnd</text>
</g>
<!-- ifEnd&#45;&gt;then -->
<g id="edge7" class="edge">
<title>ifEnd-&gt;then</title>
<path fill="none" stroke="black" d="M213.81,-213.17C213.81,-185.43 213.81,-153.56 213.81,-129.12"/>
<polygon fill="black" stroke="black" points="217.31,-129.29 213.81,-119.29 210.31,-129.29 217.31,-129.29"/>
</g>
<!-- forBody -->
<g id="node9" class="node">
<title>forBody</title>
<polygon fill="none" stroke="black" points="294.19,-0.5 294.19,-176.5 545.43,-176.5 545.43,-0.5 294.19,-0.5"/>
<text text-anchor="start" x="302.19" y="-159.9" font-family="Courier New" font-size="14.00">forBody:</text>
<text text-anchor="start" x="302.19" y="-143.1" font-family="Courier New" font-size="14.00">i.2 = ϕ 1 i.3 entry1 ifEnd1</text>
<text text-anchor="start" x="302.19" y="-126.3" font-family="Courier New" font-size="14.00">a.1 = COPY 5</text>
<text text-anchor="start" x="302.19" y="-109.5" font-family="Courier New" font-size="14.00">call = CALL @print_int 5</text>
<text text-anchor="start" x="302.19" y="-92.7" font-family="Courier New" font-size="14.00">b.0 = COPY n</text>
<text text-anchor="start" x="302.19" y="-75.9" font-family="Courier New" font-size="14.00">c.0 = COPY n</text>
<text text-anchor="start" x="302.19" y="-59.1" font-family="Courier New" font-size="14.00">div = DIV i.2 2</text>
<text text-anchor="start" x="302.19" y="-42.3" font-family="Courier New" font-size="14.00">mul = MUL div 2</text>
<text text-anchor="start" x="302.19" y="-25.5" font-family="Courier New" font-size="14.00">rel1 = CMP_EQ mul i.2</text>
<text text-anchor="start" x="302.19" y="-8.7" font-family="Courier New" font-size="14.00">BR rel1 then else</text>
</g>
<!-- ifEnd&#45;&gt;forBody -->
<g id="edge9" class="edge">
<title>ifEnd-&gt;forBody</title>
<path fill="none" stroke="black" d="M282.69,-213.17C293.04,-203.84 303.9,-194.04 314.79,-184.22"/>
<polygon fill="black" stroke="black" points="316.92,-187.02 322,-177.72 312.23,-181.82 316.92,-187.02"/>
</g>
</g>
</svg>